<svg width="80" height="80" viewBox="0 0 80 80" fill="none" xmlns="http://www.w3.org/2000/svg">
<path d="M63.9286 31.25H65C67.7614 31.25 70 33.4886 70 36.25V50C70 51.3807 68.8807 52.5 67.5 52.5H66.25V57.5C66.25 58.8807 65.1307 60 63.75 60C62.3693 60 61.25 58.8807 61.25 57.5V52.5H28.75M42.4286 37.6429H16.8571V34.6786C16.8571 32.785 15.3221 31.25 13.4286 31.25C11.535 31.25 10 32.785 10 34.6786V50.5682C10 51.6351 10.8649 52.5 11.9318 52.5H13.75V57.5C13.75 58.8807 14.8693 60 16.25 60C17.6307 60 18.75 58.8807 18.75 57.5V52.5H22.5M62.5 24.375C62.5 26.7912 60.5412 28.75 58.125 28.75C55.7088 28.75 53.75 26.7912 53.75 24.375C53.75 21.9588 55.7088 20 58.125 20C60.5412 20 62.5 21.9588 62.5 24.375ZM57.2518 32.2503L51.704 31.3257C51.4109 31.2768 51.1101 31.3339 50.8554 31.4868L46.5941 34.0435C45.8329 34.5003 45.777 35.5828 46.4872 36.1154L53.6654 41.499C54.3324 41.9993 55.293 41.7187 55.5858 40.9379L58.2167 33.9222C58.493 33.1854 58.0279 32.3797 57.2518 32.2503Z" stroke="url(#paint0_linear_7807_14349)" stroke-width="2" stroke-linecap="round"/>
<defs>
<linearGradient id="paint0_linear_7807_14349" x1="10" y1="20" x2="55.8086" y2="7.59495" gradientUnits="userSpaceOnUse">
<stop stop-color="#fff"/>
<stop offset="1" stop-color="#fff"/>
</linearGradient>
</defs>
</svg>
