<svg width="80" height="80" viewBox="0 0 80 80" fill="none" xmlns="http://www.w3.org/2000/svg">
<path d="M37.7573 26.9299C38.3684 27.0938 39.0532 27.1905 39.8464 27.1905C45.0691 27.1905 45.5914 23 51.3364 23C53.3214 23 54.9322 23.3752 56.1905 24.1255M29.4009 23.0496C29.0725 23.0173 28.7252 23 28.3564 23C22.6114 23 20 26.1429 20 32.4286C20 37.1429 23.6559 46.5714 24.1782 52.3333C24.6037 57.0283 26.7896 67 32.5346 67C37.7573 67 32.5346 53.381 39.8464 53.381C47.1582 53.381 41.9355 67 47.1582 67C51.1799 67 53.4574 62.1136 54.6079 57.5714C55.1009 55.625 55.387 53.7417 55.5146 52.3333C55.7045 50.2391 56.3082 47.6606 57 45M63.0358 23.1606L60.5796 29.3011C60.5288 29.4281 60.4281 29.5288 60.301 29.5796L54.1606 32.0358C53.7415 32.2034 53.7415 32.7966 54.1606 32.9642L60.301 35.4204C60.4281 35.4712 60.5288 35.5719 60.5796 35.699L63.0358 41.8394C63.2034 42.2585 63.7966 42.2585 63.9642 41.8394L66.4204 35.699C66.4712 35.5719 66.5719 35.4712 66.699 35.4204L72.8394 32.9642C73.2585 32.7966 73.2585 32.2034 72.8394 32.0358L66.699 29.5796C66.5719 29.5288 66.4712 29.4281 66.4204 29.3011L63.9642 23.1606C63.7966 22.7415 63.2034 22.7415 63.0358 23.1606ZM53.5417 10.0502L52.3712 12.7327C52.3166 12.8578 52.2132 12.9552 52.085 13.0022L49.2803 14.0306C48.8431 14.1909 48.8431 14.8092 49.2803 14.9694L52.085 15.9979C52.2132 16.0449 52.3166 16.1422 52.3712 16.2673L53.5417 18.9498C53.7163 19.3498 54.2837 19.3498 54.4583 18.9498L55.6288 16.2673C55.6834 16.1422 55.7868 16.0449 55.9149 15.9979L58.7197 14.9694C59.1569 14.8092 59.1569 14.1909 58.7197 14.0306L55.9149 13.0022C55.7868 12.9552 55.6834 12.8578 55.6288 12.7327L54.4583 10.0502C54.2837 9.65017 53.7163 9.65017 53.5417 10.0502ZM11.5358 38.1606L10.3653 41.0868C10.3145 41.2138 10.2138 41.3145 10.0867 41.3653L7.16059 42.5358C6.74151 42.7034 6.74151 43.2966 7.16059 43.4642L10.0867 44.6347C10.2138 44.6855 10.3145 44.7862 10.3653 44.9133L11.5358 47.8394C11.7034 48.2585 12.2966 48.2585 12.4642 47.8394L13.6347 44.9133C13.6855 44.7862 13.7862 44.6855 13.9132 44.6347L16.8394 43.4642C17.2585 43.2966 17.2585 42.7034 16.8394 42.5358L13.9132 41.3653C13.7862 41.3145 13.6855 41.2138 13.6347 41.0868L12.4642 38.1606C12.2966 37.7415 11.7034 37.7415 11.5358 38.1606Z" stroke="url(#paint0_linear_7807_14353)" stroke-width="2" stroke-linecap="round"/>
<defs>
<linearGradient id="paint0_linear_7807_14353" x1="6.84628" y1="9.75018" x2="58.9068" y2="-1.13551" gradientUnits="userSpaceOnUse">
<stop stop-color="#fff"/>
<stop offset="1" stop-color="#fff"/>
</linearGradient>
</defs>
</svg>
