<svg width="80" height="80" viewBox="0 0 80 80" fill="none" xmlns="http://www.w3.org/2000/svg">
<path d="M25 51H29.5858C29.851 51 30.1054 50.8946 30.2929 50.7071L32.7071 48.2929C32.8947 48.1054 33.149 48 33.4142 48H43.5C44.8807 48 46 49.1193 46 50.5C46 51.8807 44.8807 53 43.5 53M25 51V60M25 51V50C25 49.4477 24.5523 49 24 49H19C18.4477 49 18 49.4477 18 50V61C18 61.5523 18.4477 62 19 62H24C24.5523 62 25 61.5523 25 61V60M38 53H43.5M43.5 53H48.7834C48.9262 53 49.0673 52.9694 49.1972 52.9104L57.8752 48.9658C59.0612 48.4267 60.4612 48.9224 61.0438 50.0876C61.5901 51.1801 61.2373 52.5085 60.221 53.186L50.2519 59.8321C50.0877 59.9416 49.8947 60 49.6972 60H33M25 60H27M58.1924 22C63.2692 27.0768 63.2692 35.308 58.1924 40.3848M62 18C69.1797 25.1797 69.1797 36.8203 62 44M18 18C10.8203 25.1797 10.8203 36.8203 18 44M22.1924 22C17.1156 27.0768 17.1156 35.308 22.1924 40.3848M49 43V29C49 24.0294 44.9706 20 40 20C35.0295 20 31 24.0294 31 29V43H49Z" stroke="url(#paint0_linear_7807_14361)" stroke-width="2" stroke-linecap="round"/>
<defs>
<linearGradient id="paint0_linear_7807_14361" x1="12.6152" y1="18" x2="55.3394" y2="8.39891" gradientUnits="userSpaceOnUse">
<stop stop-color="#fff"/>
<stop offset="1" stop-color="#fff"/>
</linearGradient>
</defs>
</svg>
