<svg width="80" height="80" viewBox="0 0 80 80" fill="none" xmlns="http://www.w3.org/2000/svg">
<path d="M40 25V40M40 25C42.2091 25 44 23.2091 44 21C44 18.7909 42.2091 17 40 17C37.7908 17 36 18.7909 36 21C36 23.2091 37.7908 25 40 25ZM40 48V55M37 28C35.5 28 33 23 29 23C25.9326 23 24.1516 26.6753 14.321 26.98C13.66 27.0004 13.1913 27.6232 13.4519 28.231C14.3745 30.3821 16.8035 34.5008 21.5898 33.441C22.2806 33.288 23.0451 33.8161 23.5011 34.357C24.9431 36.0672 29 35.9668 29 33.5M43 28C44.5 28 47 23 51 23C54.0674 23 55.8484 26.6753 65.679 26.98C66.34 27.0004 66.8087 27.6232 66.548 28.231C65.6255 30.3821 63.1964 34.5008 58.4101 33.441C57.7194 33.288 56.9548 33.8161 56.4988 34.357C55.0568 36.0672 51 35.9668 51 33.5M37 34.9999C35.5 33.4999 31 33.9999 31 37.9999C31 43.5 46 43.5 46 51C46 53.7903 44.4111 55.8655 42.5 57.7008M37 71C37 71 36 69 36 66C36 64.4207 36.8245 63.0888 38 61.8267M43 34.9999C44.5 33.4999 49 33.9999 49 37.9999C49 40.1283 46.7539 41.433 44 42.6674M43 71C43 71 44 69 44 66C44 60.5 34 58 34 51C34 48.8464 35.2367 47.3113 37 46.0867" stroke="url(#paint0_linear_7807_14345)" stroke-width="2" stroke-linecap="round"/>
<defs>
<linearGradient id="paint0_linear_7807_14345" x1="13.3787" y1="17" x2="55.6692" y2="9.47219" gradientUnits="userSpaceOnUse">
<stop stop-color="#fff"/>
<stop offset="1" stop-color="#fff"/>
</linearGradient>
</defs>
</svg>
