<svg width="80" height="80" viewBox="0 0 80 80" fill="none" xmlns="http://www.w3.org/2000/svg">
<path d="M25 30L21.4142 33.5858C20.6332 34.3668 20.6332 35.6332 21.4142 36.4142L28.5858 43.5858C29.3668 44.3668 30.6332 44.3668 31.4142 43.5858L35 40M25 30L39.5858 15.4142C40.3668 14.6332 41.6332 14.6332 42.4142 15.4142L43 16M25 30L35 40M35 40L45.5105 29.4895M43 16L49 22M43 16L45.5 15.5L47 14L47.5 11.5L49 10L55 16L53.5 17.5L51 18L49.5 19.5L49 22M49 22L49.5858 22.5858C50.3668 23.3668 50.3668 24.6332 49.5858 25.4142L45.5105 29.4895M28.0689 57.2738C29.6296 57.7461 31.2851 58 33 58C35.4605 58 37.7989 57.4773 39.9102 56.5368M28.0689 57.2738L24.4171 68.6955C24.2108 69.3407 24.6922 70 25.3696 70H42.6511C43.3224 70 43.803 69.3517 43.6079 68.7093L39.9102 56.5368M28.0689 57.2738C25.3475 56.4503 22.9146 54.9629 20.9584 53M39.9102 56.5368C45.8554 53.8887 50 47.9284 50 41C50 36.56 48.2978 32.5175 45.5105 29.4895M14 53H20.9584M29 53H20.9584" stroke="url(#paint0_linear_7807_14357)" stroke-width="2" stroke-linecap="round"/>
<path d="M54.0781 45V52.6923L52.6424 56.1155M54.0781 45H53.1041M54.0781 45H59.9219M59.9219 45H60.8959M59.9219 45V52.6923L65.6646 66.3849C66.6115 67.9875 65.4407 70 63.5614 70H50.4386C48.5593 70 47.3885 67.9875 48.3354 66.3849L49.771 62.9618" stroke="url(#paint1_linear_7807_14357)" stroke-width="2" stroke-linecap="round"/>
<defs>
<linearGradient id="paint0_linear_7807_14357" x1="14" y1="10" x2="47.0944" y2="5.9173" gradientUnits="userSpaceOnUse">
<stop stop-color="#fff"/>
<stop offset="1" stop-color="#fff"/>
</linearGradient>
<linearGradient id="paint1_linear_7807_14357" x1="48" y1="45" x2="62.5053" y2="43.1145" gradientUnits="userSpaceOnUse">
<stop stop-color="#fff"/>
<stop offset="1" stop-color="#fff"/>
</linearGradient>
</defs>
</svg>
