<svg width="201" height="40" viewBox="0 0 201 40" fill="none" xmlns="http://www.w3.org/2000/svg">
<g clip-path="url(#clip0_8564_2645)">
<path d="M34.2604 27.4891H38.1798C38.7598 27.4891 39.316 27.2608 39.726 26.8545C40.1361 26.4481 40.3665 25.897 40.3665 25.3223V14.6756C40.3668 14.391 40.3104 14.1091 40.2006 13.8461C40.0908 13.5831 39.9297 13.3441 39.7266 13.1429C39.5235 12.9416 39.2824 12.782 39.0169 12.6732C38.7515 12.5644 38.467 12.5085 38.1798 12.5088H34.2604C27.6168 12.5088 26.7026 16.2514 26.7026 19.9979C26.7026 23.7445 27.6168 27.4891 34.2604 27.4891Z" fill="white"/>
<path d="M6.10813 12.5088H2.18468C1.89753 12.5085 1.61316 12.5644 1.34785 12.6732C1.08254 12.7821 0.841506 12.9417 0.638561 13.143C0.435615 13.3443 0.274746 13.5833 0.165171 13.8463C0.0555956 14.1093 -0.000532038 14.3911 3.80071e-06 14.6756V25.3223C-0.000263736 25.6067 0.0560471 25.8885 0.165717 26.1513C0.275388 26.4142 0.436267 26.6531 0.639159 26.8543C0.842051 27.0556 1.08298 27.2152 1.34817 27.3241C1.61336 27.4331 1.89761 27.4891 2.18468 27.4891H6.10813C12.7497 27.4891 13.6659 23.7445 13.6659 20C13.6659 16.2554 12.7477 12.5088 6.10813 12.5088Z" fill="white"/>
<path d="M27.741 6.05266V2.16484C27.741 1.88038 27.6844 1.59871 27.5745 1.33593C27.4646 1.07314 27.3035 0.834405 27.1004 0.633355C26.8973 0.432305 26.6563 0.272887 26.391 0.164213C26.1257 0.0555381 25.8414 -0.000261341 25.5543 3.7662e-06H14.8101C14.523 -0.000527207 14.2386 0.0550908 13.9731 0.163671C13.7077 0.272251 13.4665 0.431659 13.2634 0.632762C13.0603 0.833865 12.8992 1.07271 12.7894 1.33561C12.6795 1.59851 12.6231 1.8803 12.6234 2.16484V6.05266C12.6234 12.6339 16.4003 13.5418 20.1812 13.5418C23.9621 13.5418 27.741 12.6319 27.741 6.05266Z" fill="white"/>
<path d="M12.6234 33.9494V37.8332C12.6231 38.1176 12.6795 38.3993 12.7891 38.6622C12.8988 38.9251 13.0597 39.164 13.2626 39.3652C13.4655 39.5665 13.7064 39.7261 13.9716 39.835C14.2368 39.9439 14.521 40 14.8081 40H25.5523C26.1322 40 26.6884 39.7717 27.0985 39.3653C27.5086 38.959 27.739 38.4078 27.739 37.8332V33.9494C27.739 27.3661 23.9601 26.4602 20.1812 26.4602C16.4023 26.4602 12.6234 27.3661 12.6234 33.9494Z" fill="white"/>
<path d="M52.1227 6.82935H54.8001L59.9553 13.8222L64.8764 6.82935H67.3787V21.7895H64.7461V10.9774L59.9777 17.6354H59.5888L54.7695 11.042V21.7895H52.1227V6.82935Z" fill="white"/>
<path d="M70.84 6.82935H79.5787V9.28067H73.5011V13.0091H78.9373V15.4685H73.5011V19.3382H79.8128V21.7895H70.8542L70.84 6.82935Z" fill="white"/>
<path d="M82.1868 19.3382H83.8034C84.4305 18.5675 85.8761 15.4039 86.1346 9.82339L86.2853 6.82935H95.6511V19.3382H97.7014V24.4688H95.2195V21.7895H84.6667V24.4628H82.1868V19.3382ZM86.717 19.3382H93.0185V9.28067H88.8528L88.6166 11.9035C88.3356 15.7671 87.2565 18.6744 86.717 19.3382Z" fill="white"/>
<path d="M100.273 22.0316V6.82932H102.92V16.2594L113.167 6.59326V21.7895H110.52V12.539L100.273 22.0316Z" fill="white"/>
<path d="M126.196 15.4039H119.29V21.7895H116.643V6.82935H119.29V12.9445H126.196V6.82935H128.828V21.7895H126.196V15.4039Z" fill="white"/>
<path d="M132.123 6.82935H134.77V19.3382H141.943V6.82935H144.575V19.3382H146.624V24.4688H144.152V21.7895H132.123V6.82935Z" fill="white"/>
<path d="M149.37 6.82935H158.109V9.28067H152.025V13.0091H157.461V15.4685H152.025V19.3382H158.325V21.7895H149.366L149.37 6.82935Z" fill="white"/>
<path d="M170.944 15.4039H164.04V21.7895H161.393V6.82935H164.04V12.9445H170.944V6.82935H173.577V21.7895H170.944V15.4039Z" fill="white"/>
<path d="M175.993 6.82935H188.442V9.28067H183.555V21.7895H180.908V9.28067H175.993V6.82935Z" fill="white"/>
<path d="M190.859 21.7896V6.82948C191.701 6.82948 194.096 6.78711 195.153 6.78711C199.597 6.78711 201 9.13958 201 11.599C201 14.1411 199.08 16.4512 195.476 16.4512C195.024 16.4512 194.159 16.4512 193.514 16.3866V21.7896H190.859ZM193.505 9.2808V13.8849C194.129 13.9521 194.755 13.9878 195.383 13.9918C196.956 13.9918 198.186 13.2453 198.186 11.5707C198.186 10.0091 197.217 9.24045 195.403 9.24045C194.872 9.24651 194.224 9.26668 193.514 9.2808H193.505Z" fill="white"/>
<path d="M54.4947 33.5236C53.0694 33.5236 52.1227 32.8094 52.1227 31.5222C52.1227 30.235 53.0857 29.545 54.4947 29.5228V28.9922H55.3966V29.5228C56.7995 29.545 57.7686 30.2733 57.7686 31.5222C57.7686 32.7711 56.7995 33.5155 55.3966 33.5236V34.1995H54.4947V33.5236ZM54.4947 32.7025V30.346C53.5561 30.346 53.0694 30.8322 53.0694 31.5222C53.0776 32.2808 53.5907 32.6944 54.4947 32.7025ZM55.3966 30.346V32.7025C56.3291 32.7025 56.8219 32.299 56.8219 31.5222C56.8056 30.8403 56.3597 30.3601 55.3966 30.346Z" fill="white"/>
<path d="M58.9169 34.141V29.0527H59.8188V32.6742L62.5064 29.0527H63.3005V34.143H62.3965V30.5276L59.7028 34.141H58.9169Z" fill="white"/>
<path d="M67.9406 29.888H66.4442L66.3403 30.8463C66.039 33.8081 65.3712 34.2863 64.3593 34.141L64.3816 33.2533C64.7766 33.3057 65.2979 33.1383 65.5259 30.0696L65.5992 29.0608H68.8365V34.1511H67.9406V29.888Z" fill="white"/>
<path d="M70.447 34.141V29.0527H71.351V32.6742L74.0366 29.0527H74.8286V34.143H73.9266V30.5276L71.2329 34.141H70.447Z" fill="white"/>
<path d="M77.9457 29.0347H78.7378L80.9102 34.1411H79.9492L79.4056 32.8398H77.2168L76.6814 34.1411H75.7712L77.9457 29.0347ZM77.5731 32.0045H79.0778L78.3285 30.1887L77.5731 32.0045Z" fill="white"/>
<path d="M84.848 29.888H83.3495L83.2477 30.8463C82.9463 33.8081 82.2785 34.2863 81.2666 34.141L81.287 33.2533C81.684 33.3057 82.2052 33.1383 82.4333 30.0696L82.5066 29.0608H85.7439V34.1511H84.848V29.888Z" fill="white"/>
<path d="M89.085 29.0527H91.9843V29.89H89.993V34.143H89.089L89.085 29.0527Z" fill="white"/>
<path d="M95.5637 29.888H94.0651L93.9633 30.8463C93.66 33.8081 92.9942 34.2863 91.9802 34.141L92.0026 33.2533C92.3976 33.3057 92.9188 33.1383 93.1469 30.0696L93.2202 29.0608H96.4575V34.1511H95.5616L95.5637 29.888Z" fill="white"/>
<path d="M99.5746 29.0347H100.377L102.549 34.1411H101.578L101.045 32.8398H98.8477L98.3122 34.1411H97.4021L99.5746 29.0347ZM99.1938 32.0045H100.698L99.9492 30.1887L99.1938 32.0045Z" fill="white"/>
<path d="M103.49 29.0649C103.777 29.0508 104.459 29.0286 104.974 29.0286C106.196 29.0286 106.662 29.5814 106.662 30.2875C106.674 30.5316 106.609 30.7733 106.478 30.98C106.347 31.1867 106.154 31.3485 105.927 31.4436V31.4577C106.197 31.5148 106.436 31.6661 106.602 31.884C106.768 32.1018 106.849 32.3716 106.831 32.644C106.831 33.6911 106.017 34.1713 104.923 34.1713C104.453 34.1713 103.791 34.1552 103.498 34.135L103.49 29.0649ZM104.394 29.888V31.1752H105.005C105.424 31.1752 105.768 30.9634 105.768 30.4973C105.768 30.0938 105.447 29.8638 104.954 29.8638C104.754 29.8598 104.555 29.8719 104.394 29.888ZM104.394 31.952V33.2896C104.591 33.3131 104.79 33.3252 104.989 33.3259C105.599 33.3259 105.927 33.0717 105.927 32.5916C105.927 32.1618 105.597 31.9439 105.033 31.9439L104.394 31.952Z" fill="white"/>
<path d="M110.667 32.9567C110.315 33.7355 109.912 34.141 109.272 34.141C109.023 34.1426 108.778 34.0726 108.568 33.9392L108.883 33.1806C108.992 33.2651 109.126 33.3093 109.264 33.3057C109.375 33.3045 109.483 33.2696 109.574 33.2058C109.665 33.142 109.733 33.0522 109.771 32.9486L109.844 32.7751L107.576 29.0527H108.594L110.276 31.8955L111.498 29.0527H112.408L110.667 32.9567Z" fill="white"/>
<path d="M116.588 29.888H114.295V34.141H113.393V29.0527H117.49V34.143H116.588V29.888Z" fill="white"/>
<path d="M118.469 33.3057H119.019C119.233 33.0434 119.723 31.9661 119.811 30.0776L119.864 29.0688H123.048V33.3239H123.747V35.0691H122.902V34.1591H119.312V35.0691H118.467L118.469 33.3057ZM120.01 33.3057H122.162V29.888H120.737L120.656 30.7737C120.56 32.0911 120.194 33.0878 120.01 33.3057Z" fill="white"/>
<path d="M124.822 29.0527H125.723V31.4738L127.76 29.0527H128.845L126.723 31.4213L128.963 34.141H127.819L125.717 31.5182V34.141H124.815L124.822 29.0527Z" fill="white"/>
<path d="M134.865 29.888H132.575V34.141H131.673V29.0527H135.769V34.143H134.865V29.888Z" fill="white"/>
<path d="M137.372 34.141V29.0528C137.659 29.0528 138.473 29.0366 138.834 29.0366C140.344 29.0366 140.823 29.8436 140.823 30.6749C140.823 31.5061 140.169 32.3252 138.944 32.3252C138.789 32.3252 138.496 32.3252 138.274 32.303V34.143L137.372 34.141ZM138.274 29.888V31.4496C138.486 31.4732 138.699 31.486 138.913 31.4879C139.448 31.4879 139.868 31.2317 139.868 30.6648C139.868 30.1342 139.538 29.8719 138.921 29.8719C138.736 29.8719 138.516 29.88 138.274 29.888Z" fill="white"/>
<path d="M142.044 34.141V29.0527H142.946V32.6742L145.64 29.0527H146.434V34.143H145.53V30.5276L142.836 34.141H142.044Z" fill="white"/>
<path d="M149.775 29.0527H150.685L152.44 31.4314L154.114 29.0527H154.965V34.143H154.069V30.465L152.44 32.7267H152.308L150.679 30.4872V34.145H149.775V29.0527Z" fill="white"/>
<path d="M156.572 34.141V29.0527H157.473V32.6742L160.165 29.0527H160.957V34.143H160.053V30.5276L157.359 34.141H156.572Z" fill="white"/>
<path d="M161.937 33.3057H162.486C162.7 33.0434 163.191 31.9661 163.28 30.0776L163.331 29.0688H166.518V33.3239H167.214V35.0691H166.369V34.1591H162.781V35.0691H161.937V33.3057ZM163.478 33.3057H165.622V29.888H164.197L164.115 30.7737C164.028 32.0911 163.661 33.0878 163.478 33.3057Z" fill="white"/>
<path d="M170.028 34.141V29.0528C170.313 29.0528 171.129 29.0366 171.488 29.0366C173 29.0366 173.477 29.8436 173.477 30.6749C173.477 31.5061 172.823 32.3252 171.597 32.3252C171.445 32.3252 171.15 32.3252 170.93 32.303V34.143L170.028 34.141ZM170.93 29.888V31.4496C171.142 31.4732 171.355 31.486 171.569 31.4879C172.104 31.4879 172.522 31.2317 172.522 30.6648C172.522 30.1342 172.192 29.8719 171.577 29.8719C171.392 29.8719 171.172 29.88 170.93 29.888Z" fill="white"/>
<path d="M176.954 28.9701C178.479 28.9701 179.632 30.0111 179.632 31.5929C179.64 31.9421 179.576 32.2892 179.444 32.6129C179.311 32.9367 179.114 33.2304 178.863 33.4759C178.613 33.7215 178.314 33.9137 177.986 34.0409C177.658 34.1681 177.307 34.2276 176.954 34.2157C175.425 34.2157 174.281 33.1747 174.281 31.5929C174.272 31.2438 174.336 30.8967 174.467 30.5728C174.599 30.2489 174.796 29.9551 175.046 29.7094C175.297 29.4637 175.595 29.2714 175.923 29.1443C176.251 29.0171 176.602 28.9579 176.954 28.9701ZM176.954 33.3845C178.031 33.3845 178.679 32.5997 178.679 31.5949C178.679 30.5417 177.924 29.8074 176.954 29.8074C175.985 29.8074 175.236 30.5417 175.236 31.5949C175.227 31.8251 175.264 32.0548 175.346 32.2704C175.428 32.4859 175.553 32.683 175.713 32.8499C175.873 33.0168 176.066 33.1501 176.279 33.2419C176.492 33.3338 176.722 33.3822 176.954 33.3845Z" fill="white"/>
<path d="M184.767 33.6467C184.443 33.9897 183.789 34.2217 183.121 34.2217C181.552 34.2217 180.475 33.1807 180.475 31.5989C180.475 30.1382 181.405 28.9761 183.101 28.9761C183.668 28.9544 184.224 29.138 184.665 29.4926L184.258 30.1543C183.917 29.921 183.511 29.8015 183.097 29.8134C182.144 29.8134 181.423 30.4953 181.423 31.6009C181.423 32.6642 182.152 33.3905 183.201 33.3905C183.642 33.3924 184.071 33.2506 184.422 32.987L184.767 33.6467Z" fill="white"/>
<path d="M189.541 33.6467C189.219 33.9897 188.566 34.2217 187.898 34.2217C186.326 34.2217 185.251 33.1806 185.251 31.5989C185.251 30.1381 186.184 28.976 187.88 28.976C188.447 28.9547 189.003 29.1383 189.443 29.4925L189.036 30.1543C188.697 29.9212 188.291 29.8017 187.878 29.8133C186.923 29.8133 186.204 30.4953 186.204 31.6009C186.204 32.6641 186.931 33.3904 187.98 33.3904C188.42 33.3924 188.85 33.2506 189.201 32.9869L189.541 33.6467Z" fill="white"/>
<path d="M190.616 34.141V29.0527H191.52V32.6742L194.214 29.0527H195.006V34.143H194.104V30.5276L191.41 34.141H190.616Z" fill="white"/>
<path d="M196.61 34.141V29.0527H197.512V32.6742L200.206 29.0527H201V34.143H200.096V30.5276L197.402 34.141H196.61Z" fill="white"/>
</g>
<defs>
<clipPath id="clip0_8564_2645">
<rect width="201" height="40" fill="white"/>
</clipPath>
</defs>
</svg>
