<svg width="41" height="40" viewBox="0 0 41 40" fill="none" xmlns="http://www.w3.org/2000/svg">
<path d="M20.7998 40C31.8455 40 40.7998 31.0457 40.7998 20C40.7998 8.95431 31.8455 0 20.7998 0C9.75411 0 0.799805 8.95431 0.799805 20C0.799805 31.0457 9.75411 40 20.7998 40Z" fill="#B0A078"/>
<path fill-rule="evenodd" clip-rule="evenodd" d="M26.5335 22.3005C26.2202 22.114 24.7789 21.3679 24.5283 21.2435C24.2776 21.1192 24.027 21.057 23.839 21.3679C23.651 21.6788 23.0244 22.3005 22.8364 22.4871C22.6484 22.6736 22.4604 22.6736 22.2097 22.5492C21.8964 22.3627 20.9565 22.0518 19.8285 20.9948C18.9512 20.1865 18.3873 19.1917 18.2619 18.8808C18.074 18.5699 18.2619 18.4456 18.3873 18.2591C18.5126 18.1347 18.7006 17.9482 18.8886 17.7617C19.0139 17.5751 19.0766 17.4508 19.2019 17.2642C19.3272 17.0777 19.2646 16.8912 19.2019 16.7668C19.1392 16.6425 18.5753 15.1503 18.3873 14.5285C18.1366 13.9067 17.886 14.0311 17.7606 14.0311C17.5727 14.0311 17.3847 13.9689 17.1967 13.9689C17.0087 13.9689 16.6954 14.0311 16.3821 14.342C16.0687 14.6529 15.3168 15.3368 15.2541 16.7668C15.1915 18.2591 16.1941 19.6891 16.3821 19.8756C16.5074 20.0622 18.3246 23.2332 21.3324 24.601C24.3403 25.9067 24.3403 25.5337 24.9042 25.4715C25.4682 25.4715 26.7215 24.7876 26.9721 24.1036C27.2228 23.4197 27.2854 22.7979 27.2228 22.6736C27.0348 22.5492 26.8468 22.487 26.5335 22.3005ZM21.0191 29.3886C19.0139 29.3886 17.1967 28.7668 15.6301 27.772L11.8703 28.9534L13.1236 25.3471C11.933 23.7306 11.2437 21.8031 11.2437 19.6269C11.2437 14.2798 15.6301 9.92746 21.0191 9.92746C26.4082 9.92746 30.7946 14.2798 30.7946 19.6269C30.8572 25.0363 26.4708 29.3886 21.0191 29.3886ZM21.0191 8C14.5022 8 9.23845 13.2228 9.23845 19.6891C9.23845 21.9275 9.86508 23.9793 10.9304 25.7202L8.7998 32L15.3168 29.9482C17.0087 30.8808 18.9512 31.3782 21.0191 31.3782C27.5361 31.3782 32.7998 26.1554 32.7998 19.6891C32.7998 13.2228 27.5361 8 21.0191 8Z" fill="white"/>
</svg>
