<svg width="138" height="49" viewBox="0 0 138 49" fill="none" xmlns="http://www.w3.org/2000/svg">
<g clip-path="url(#clip0_7413_49320)">
<path fill-rule="evenodd" clip-rule="evenodd" d="M29.1682 24.4044C29.1996 22.3244 30.2346 20.4044 31.9596 19.3164C30.8932 17.7164 29.1368 16.7564 27.2236 16.6604C25.2164 16.4364 23.2718 17.9084 22.2682 17.9084C21.2332 17.9084 19.665 16.6924 17.9714 16.7244C15.7446 16.7884 13.7373 18.0684 12.6396 20.0524C10.35 24.1804 12.075 30.1964 14.2705 33.5244C15.3682 35.1564 16.6541 36.9804 18.3477 36.8844C19.9786 36.8204 20.6059 35.7964 22.6132 35.7964C24.5891 35.7964 25.1536 36.8844 26.8786 36.8524C28.6664 36.8204 29.7641 35.2204 30.8305 33.5884C31.6146 32.4364 32.2418 31.1564 32.6496 29.7804C30.5168 28.8524 29.1368 26.7404 29.1682 24.4044Z" fill="#FFF"/>
<path fill-rule="evenodd" clip-rule="evenodd" d="M25.9064 14.4843C26.8787 13.3003 27.3491 11.7643 27.2237 10.1963C25.7496 10.3563 24.3696 11.0923 23.3973 12.2443C22.425 13.3643 21.9546 14.8683 22.0487 16.3723C23.5541 16.3723 24.9655 15.6683 25.9064 14.4843Z" fill="#FFF"/>
<path fill-rule="evenodd" clip-rule="evenodd" d="M48.9273 32.9483H43.5328L42.2469 36.9163H39.9573L45.0696 22.2603H47.4532L52.5655 36.9163H50.2446L48.9273 32.9483ZM44.0973 31.1243H48.3941L46.2928 24.6923H46.23L44.0973 31.1243Z" fill="#FFF"/>
<path fill-rule="evenodd" clip-rule="evenodd" d="M63.6368 31.5724C63.6368 34.9004 61.9118 37.0124 59.3087 37.0124C57.96 37.0764 56.7055 36.3724 56.0468 35.1564H56.0155V40.4364H53.8828V26.2284H55.9527V28.0204H55.9841C56.6741 26.8044 57.9287 26.1004 59.2773 26.1324C61.9118 26.1324 63.6368 28.2764 63.6368 31.5724ZM61.4414 31.5724C61.4414 29.3964 60.3437 27.9884 58.7127 27.9884C57.0818 27.9884 56.0155 29.4284 56.0155 31.5724C56.0155 33.7164 57.1132 35.1564 58.7127 35.1564C60.375 35.1564 61.4414 33.7484 61.4414 31.5724Z" fill="#FFF"/>
<path fill-rule="evenodd" clip-rule="evenodd" d="M75.0218 31.5724C75.0218 34.9004 73.2968 37.0124 70.6936 37.0124C69.345 37.0764 68.0904 36.3724 67.4318 35.1564H67.3691V40.4364H65.2364V26.2284H67.3064V28.0204H67.3377C67.9964 26.8044 69.2823 26.1004 70.6309 26.1324C73.2968 26.1324 75.0218 28.2764 75.0218 31.5724ZM72.8264 31.5724C72.8264 29.3964 71.76 27.9884 70.0977 27.9884C68.4668 27.9884 67.4004 29.4284 67.4004 31.5724C67.4004 33.7164 68.4982 35.1564 70.0977 35.1564C71.76 35.1564 72.8264 33.7484 72.8264 31.5724Z" fill="#FFF"/>
<path fill-rule="evenodd" clip-rule="evenodd" d="M82.5491 32.8201C82.7059 34.2601 84.0859 35.2201 85.9364 35.2201C87.7241 35.2201 89.01 34.2601 89.01 32.9481C89.01 31.8281 88.2259 31.1241 86.4068 30.6761L84.5564 30.2281C81.9532 29.5881 80.73 28.3081 80.73 26.2921C80.73 23.7641 82.8627 22.0361 85.905 22.0361C88.9159 22.0361 90.9546 23.7641 91.0173 26.2921H88.8846C88.7591 24.8201 87.5986 23.9561 85.8736 23.9561C84.18 23.9561 82.9882 24.8521 82.9882 26.1321C82.9882 27.1561 83.7409 27.7641 85.56 28.2441L87.1282 28.6281C90.045 29.3321 91.2682 30.5481 91.2682 32.6921C91.2682 35.4441 89.1668 37.1401 85.7796 37.1401C82.6432 37.1401 80.5105 35.4761 80.385 32.8201H82.5491Z" fill="#FFF"/>
<path fill-rule="evenodd" clip-rule="evenodd" d="M95.8473 23.7002V26.2282H97.8232V27.9562H95.8473V33.8442C95.8473 34.7402 96.2237 35.1882 97.1018 35.1882C97.3527 35.1882 97.5723 35.1562 97.7918 35.1242V36.8522C97.4155 36.9162 97.0077 36.9482 96.6314 36.9482C94.53 36.9482 93.7146 36.1482 93.7146 34.0682V27.9562H92.2091V26.2282H93.7146V23.7002H95.8473Z" fill="#FFF"/>
<path fill-rule="evenodd" clip-rule="evenodd" d="M98.9523 31.5721C98.9523 28.2121 100.865 26.1001 103.876 26.1001C106.887 26.1001 108.8 28.2121 108.8 31.5721C108.8 34.9321 106.887 37.0441 103.876 37.0441C100.865 37.0441 98.9523 34.9321 98.9523 31.5721ZM106.605 31.5721C106.605 29.2681 105.57 27.8921 103.876 27.8921C102.151 27.8921 101.116 29.2681 101.116 31.5721C101.116 33.8761 102.151 35.2201 103.876 35.2201C105.57 35.2201 106.605 33.8761 106.605 31.5721Z" fill="#FFF"/>
<path fill-rule="evenodd" clip-rule="evenodd" d="M110.525 26.2283H112.564V28.0523H112.627C112.909 26.9003 113.944 26.1003 115.105 26.1323C115.355 26.1323 115.575 26.1643 115.826 26.1963V28.2443C115.512 28.1483 115.199 28.1163 114.885 28.1163C113.568 28.0523 112.501 29.2363 112.658 30.5803V36.9163H110.525V26.2283Z" fill="#FFF"/>
<path fill-rule="evenodd" clip-rule="evenodd" d="M125.611 33.7801C125.329 35.7001 123.51 37.0441 121.158 37.0441C118.147 37.0441 116.296 34.9641 116.296 31.6361C116.296 28.2761 118.178 26.1001 121.095 26.1001C123.949 26.1001 125.768 28.1481 125.768 31.3801V32.1161H118.46V32.2441C118.304 33.9081 119.621 35.3161 121.252 35.2841C122.287 35.3801 123.259 34.7721 123.635 33.7801H125.611ZM118.429 30.5801H123.604C123.698 29.0761 122.538 27.8601 121.064 27.8601C119.621 27.8601 118.429 29.0761 118.429 30.5801Z" fill="#FFF"/>
<path fill-rule="evenodd" clip-rule="evenodd" d="M42.5604 14.2282H43.47C44.1286 14.2922 44.7245 13.7802 44.7559 13.1082C44.7559 12.4682 44.2854 12.0522 43.47 12.0522C42.8114 11.9562 42.1841 12.4362 42.09 13.1082V13.1402H41.0864C41.1491 11.8602 42.2468 10.9322 43.5014 11.0922C44.85 11.0922 45.7909 11.8602 45.7909 12.9802C45.7909 13.7482 45.2891 14.4202 44.5364 14.5802V14.6762C45.4145 14.7082 46.0732 15.4762 46.0418 16.3722C45.9164 17.6522 44.7873 18.6122 43.5327 18.4842H43.47C42.2154 18.6442 41.0864 17.7482 40.9295 16.5002V16.4042H41.9332C41.9959 17.0762 42.5918 17.5242 43.47 17.5242C44.3482 17.5242 44.9441 17.0442 44.9441 16.3402C44.9441 15.6362 44.4109 15.2202 43.4386 15.2202H42.4977V14.2282H42.5604Z" fill="#FFF"/>
<path fill-rule="evenodd" clip-rule="evenodd" d="M47.265 16.7881C47.265 15.8281 47.955 15.2841 49.1782 15.2201L50.5895 15.1241V14.6761C50.5895 14.1001 50.2445 13.7801 49.5232 13.7801C48.9586 13.7801 48.5823 14.0041 48.4568 14.3561H47.4532C47.5473 13.4601 48.3941 12.8521 49.5545 12.8521C50.8404 12.8521 51.5618 13.5241 51.5618 14.6441V18.2921H50.5895V17.5561H50.4954C50.1818 18.1001 49.5859 18.4201 48.9586 18.3881C48.0491 18.4521 47.265 17.7161 47.265 16.7881ZM50.5582 16.3081V15.8601L49.3036 15.9561C48.5823 16.0201 48.2686 16.2441 48.2686 16.7241C48.2686 17.2041 48.6763 17.4921 49.2095 17.4921C49.8682 17.5561 50.4641 17.0441 50.5268 16.3721V16.3081H50.5582Z" fill="#FFF"/>
<path fill-rule="evenodd" clip-rule="evenodd" d="M54.2591 13.8445V18.2925H53.2555V12.9805H56.6427V13.8445H54.2591Z" fill="#FFF"/>
<path fill-rule="evenodd" clip-rule="evenodd" d="M62.79 15.6042C62.79 17.3002 61.9746 18.3562 60.6573 18.3562C59.9987 18.4202 59.3714 18.0682 59.0577 17.4602H58.9637V20.0202H57.96V12.9802H58.9323V13.8442H58.995C59.3087 13.2362 59.9359 12.8522 60.6259 12.8842C61.9746 12.8842 62.79 13.9402 62.79 15.6042ZM61.755 15.6042C61.755 14.4842 61.2532 13.8122 60.375 13.8122C59.5282 13.8122 58.995 14.5162 58.995 15.6362C58.995 16.7242 59.5282 17.4282 60.375 17.4282C61.2532 17.4282 61.755 16.7562 61.755 15.6042Z" fill="#FFF"/>
<path fill-rule="evenodd" clip-rule="evenodd" d="M64.1386 20.1805V19.2845C64.2327 19.3165 64.3581 19.3165 64.4522 19.3165C64.8913 19.3485 65.2991 19.0285 65.3931 18.5805L65.4559 18.3245L63.6368 12.9805H64.7345L66.0204 17.2045H66.0831L67.3691 12.9805H68.4354L66.5222 18.5165C66.0831 19.7965 65.5813 20.2125 64.5463 20.2125C64.4836 20.2125 64.2327 20.2125 64.1386 20.1805Z" fill="#FFF"/>
<path fill-rule="evenodd" clip-rule="evenodd" d="M69.2509 16.7562H70.2546C70.3486 17.2362 70.7877 17.4602 71.3836 17.4602C72.0423 17.4602 72.4814 17.1402 72.4814 16.6602C72.4814 16.1482 72.105 15.9242 71.3836 15.9242H70.5996V15.0922H71.3523C71.9796 15.0922 72.2618 14.8362 72.2618 14.3882C72.2618 14.0042 71.9482 13.7162 71.3523 13.7162C70.7877 13.7162 70.38 13.9722 70.3173 14.3882H69.345C69.5018 13.3962 70.38 12.6922 71.3836 12.8202C72.6068 12.8202 73.2968 13.3962 73.2968 14.2922C73.2968 14.8042 72.9832 15.2522 72.4814 15.3802V15.4762C73.0459 15.5402 73.485 16.0522 73.485 16.6602C73.485 17.6842 72.6382 18.3242 71.3836 18.3242C70.2546 18.3882 69.345 17.8442 69.2509 16.7562Z" fill="#FFF"/>
<path fill-rule="evenodd" clip-rule="evenodd" d="M74.9591 18.2925V12.9805H75.9627V16.6285H76.0568L78.4091 12.9805H79.4127V18.2925H78.4091V14.6125H78.3464L75.9627 18.2925H74.9591Z" fill="#FFF"/>
<path fill-rule="evenodd" clip-rule="evenodd" d="M84.9641 13.8445H83.3645V18.2925H82.3296V13.8445H80.6986V12.9805H84.9641V13.8445Z" fill="#FFF"/>
<path fill-rule="evenodd" clip-rule="evenodd" d="M90.4527 16.8523C90.1705 17.8443 89.2296 18.4843 88.2259 18.3883C86.7832 18.4203 85.6228 17.1083 85.8423 15.6363C85.6541 14.1643 86.7518 12.8843 88.1946 12.8843C89.6373 12.8843 90.4841 13.9083 90.4841 15.5723V15.9243H86.8773V15.9883C86.8146 16.8203 87.4418 17.5243 88.2573 17.4923C88.7591 17.5563 89.2609 17.3003 89.4805 16.8523H90.4527ZM86.8773 15.1243H89.4805C89.5432 14.4203 89.01 13.8123 88.3514 13.7483C88.32 13.7483 88.2573 13.7483 88.2259 13.7483C87.4732 13.7483 86.8459 14.3563 86.8773 15.1243Z" fill="#FFF"/>
<path fill-rule="evenodd" clip-rule="evenodd" d="M94.7496 12.9805H97.0705C98.0741 12.9805 98.67 13.4925 98.67 14.3245C98.67 14.8685 98.325 15.3165 97.7918 15.4445V15.5405C98.4191 15.6045 98.8896 16.1165 98.8896 16.7565C98.8896 17.6845 98.1996 18.2925 97.0705 18.2925H94.7182V12.9805H94.7496ZM95.7532 13.7805V15.1565H96.7568C97.3841 15.1565 97.6664 14.9005 97.6664 14.4525C97.6664 14.0365 97.4155 13.7805 96.8509 13.7805H95.7532ZM95.7532 15.9245V17.4605H96.9764C97.5723 17.4605 97.8859 17.1725 97.8859 16.6925C97.8859 16.1485 97.5096 15.9245 96.8196 15.9245H95.7532Z" fill="#FFF"/>
<path fill-rule="evenodd" clip-rule="evenodd" d="M6.3981 2.2602C3.6381 2.9002 1.50537 5.5882 1.5681 8.5002C1.5681 19.1562 1.5681 29.8442 1.5681 40.5002C1.50537 43.8602 4.42219 47.0602 7.80946 46.8682C48.5822 46.8682 89.3863 46.8682 130.159 46.8682C133.546 47.0602 136.494 43.8602 136.4 40.4682C136.432 29.8442 136.432 19.1562 136.432 8.5002C136.526 5.0762 133.515 2.0042 130.159 2.1002C89.6058 2.1002 49.0526 2.1002 8.4681 2.1002C7.7781 2.1002 7.0881 2.1002 6.3981 2.2602ZM6.11583 0.7242C7.40174 0.4362 8.75037 0.5002 10.0363 0.5002C49.8681 0.5002 89.6999 0.5002 129.532 0.5002C131.319 0.5002 133.233 0.7882 134.675 1.9722C136.871 3.4762 138.094 6.1642 138 8.8202C138 19.3802 138.031 29.9402 138 40.5002C138.063 43.8602 135.773 47.1242 132.605 48.0842C131.1 48.5642 129.532 48.5002 127.995 48.5002C88.6649 48.5002 49.3663 48.5002 10.0676 48.5002C8.62492 48.5002 7.11946 48.5642 5.7081 48.1802C2.41492 47.3162 -8.16378e-05 43.9882 0.0626456 40.5322C-0.0314453 30.2602 0.031282 20.0202 -8.16395e-05 9.7802C-8.16395e-05 8.5962 -0.0314453 7.3802 0.313555 6.2602C1.09765 3.5402 3.38719 1.2682 6.11583 0.7242Z" fill="#FFF"/>
</g>
<defs>
<clipPath id="clip0_7413_49320">
<rect width="138" height="48" fill="white" transform="translate(0 0.5)"/>
</clipPath>
</defs>
</svg>
