<svg width="138" height="49" viewBox="0 0 138 49" fill="none" xmlns="http://www.w3.org/2000/svg">
<g clip-path="url(#clip0_7413_49319)">
<path fill-rule="evenodd" clip-rule="evenodd" d="M6.39819 2.2602C3.63819 2.9002 1.50546 5.5882 1.56819 8.5002C1.56819 19.1562 1.56819 29.8442 1.56819 40.5002C1.50546 43.8602 4.42228 47.0602 7.80956 46.8682C48.5823 46.8682 89.3864 46.8682 130.159 46.8682C133.546 47.0602 136.495 43.8602 136.4 40.4682C136.432 29.8442 136.432 19.1562 136.432 8.5002C136.526 5.0762 133.515 2.0042 130.159 2.1002C89.6059 2.1002 49.0527 2.1002 8.46819 2.1002C7.77819 2.1002 7.08819 2.1002 6.39819 2.2602ZM6.11592 0.7242C7.40183 0.4362 8.75047 0.5002 10.0364 0.5002C49.8682 0.5002 89.7 0.5002 129.532 0.5002C131.32 0.5002 133.233 0.7882 134.675 1.9722C136.871 3.4762 138.094 6.1642 138 8.8202C138 19.3802 138.031 29.9402 138 40.5002C138.063 43.8602 135.773 47.1242 132.605 48.0842C131.1 48.5642 129.532 48.5002 127.995 48.5002C88.665 48.5002 49.3664 48.5002 10.0677 48.5002C8.62501 48.5002 7.11956 48.5642 5.70819 48.1802C2.41501 47.3162 9.91498e-06 43.9882 0.0627372 40.5322C-0.0313537 30.2602 0.0313736 20.0202 9.91329e-06 9.7802C9.91329e-06 8.5962 -0.0313537 7.3802 0.313646 6.2602C1.09774 3.5402 3.38728 1.2682 6.11592 0.7242Z" fill="#FFF"/>
<path fill-rule="evenodd" clip-rule="evenodd" d="M10.695 13.1372C10.3814 13.4892 10.1932 14.0012 10.1932 14.7052V39.0572C10.1932 39.7292 10.3814 40.2732 10.695 40.5932L10.7891 40.6572L24.15 27.0252V26.7052L10.7891 13.0732L10.695 13.1372Z" fill="#FFF" stroke="white" stroke-width="0.520462" stroke-miterlimit="10"/>
<path fill-rule="evenodd" clip-rule="evenodd" d="M28.6036 31.5696L24.15 27.0256V26.7056L28.6036 22.1616L28.6977 22.2256L33.9668 25.2976C35.4722 26.1616 35.4722 27.6016 33.9668 28.4656L28.6977 31.5376C28.6977 31.5056 28.6036 31.5696 28.6036 31.5696Z" fill="#FFF" stroke="white" stroke-width="0.520462" stroke-miterlimit="10"/>
<path fill-rule="evenodd" clip-rule="evenodd" d="M28.6977 31.5057L24.15 26.8657L10.695 40.5937C11.1968 41.1377 12.0123 41.2017 12.9532 40.6577L28.6977 31.5057Z" fill="#FFF" stroke="white" stroke-width="0.520462" stroke-miterlimit="10"/>
<path fill-rule="evenodd" clip-rule="evenodd" d="M28.6977 22.2257L12.9218 13.0737C12.0123 12.5297 11.1655 12.5937 10.6636 13.1377L24.15 26.8657L28.6977 22.2257Z" fill="#FFF" stroke="white" stroke-width="0.520462" stroke-miterlimit="10"/>
<path opacity="0.2" fill-rule="evenodd" clip-rule="evenodd" d="M28.6036 31.4097L12.9532 40.4977C12.075 41.0097 11.2909 40.9777 10.7891 40.4977L10.695 40.5937L10.7891 40.6577C11.2909 41.1377 12.075 41.1697 12.9532 40.6577L28.7291 31.5057L28.6036 31.4097Z" fill="#5B5C5F" stroke="white" stroke-width="0.520462" stroke-miterlimit="10"/>
<path opacity="0.12" fill-rule="evenodd" clip-rule="evenodd" d="M33.9668 28.3055L28.5723 31.4095L28.6664 31.5055L33.9354 28.4335C34.6882 27.9855 35.0645 27.4095 35.0645 26.8335C35.0332 27.4095 34.6568 27.8895 33.9668 28.3055Z" fill="#5B5C5F" stroke="white" stroke-width="0.520462" stroke-miterlimit="10"/>
<path opacity="0.25" fill-rule="evenodd" clip-rule="evenodd" d="M12.9218 13.2335L33.9668 25.4255C34.6568 25.8095 35.0332 26.3215 35.0959 26.8655C35.0959 26.2895 34.7195 25.7135 33.9668 25.2655L12.9218 13.0735C11.4164 12.1775 10.1932 12.9135 10.1932 14.6735V14.8335C10.1932 13.1055 11.4164 12.3695 12.9218 13.2335Z" fill="#5B5C5F" stroke="white" stroke-width="0.520462" stroke-miterlimit="10"/>
<path fill-rule="evenodd" clip-rule="evenodd" d="M40.2395 26.0979C40.2395 22.1939 43.4386 19.0259 47.265 19.0259C49.3663 19.0259 50.8718 19.8579 52.0009 20.9779L50.6522 22.3539C49.8368 21.5859 48.739 20.9779 47.2336 20.9779C44.4422 20.9779 42.2468 23.2819 42.2468 26.1299C42.2468 28.9779 44.4422 31.2819 47.2022 31.2819C49.0213 31.2819 50.0563 30.5459 50.715 29.8739C51.2481 29.3299 51.6245 28.5299 51.75 27.4419H47.2336V25.5219H53.6318C53.6945 25.8739 53.7259 26.2899 53.7259 26.7379C53.7259 28.1779 53.3495 29.9699 52.095 31.2499C50.8718 32.5299 49.335 33.2339 47.265 33.2339C43.4386 33.1699 40.2395 30.0019 40.2395 26.0979ZM58.9009 24.0499C56.4231 24.0499 54.4159 25.9699 54.4159 28.5939C54.4159 31.2179 56.4231 33.1379 58.9009 33.1379C61.3786 33.1379 63.3859 31.2179 63.3859 28.5939C63.3859 25.9699 61.3786 24.0499 58.9009 24.0499ZM58.9009 31.3779C57.5522 31.3779 56.3918 30.2259 56.3918 28.6259C56.3918 26.9939 57.5522 25.8739 58.9009 25.8739C60.2495 25.8739 61.41 26.9939 61.41 28.6259C61.41 30.2259 60.2495 31.3779 58.9009 31.3779ZM68.6863 24.0499C66.2086 24.0499 64.2013 25.9699 64.2013 28.5939C64.2013 31.2179 66.2086 33.1379 68.6863 33.1379C71.164 33.1379 73.1713 31.2179 73.1713 28.5939C73.1713 25.9699 71.164 24.0499 68.6863 24.0499ZM68.6863 31.3779C67.3377 31.3779 66.1772 30.2259 66.1772 28.6259C66.1772 26.9939 67.3377 25.8739 68.6863 25.8739C70.035 25.8739 71.1954 26.9939 71.1954 28.6259C71.1954 30.2259 70.035 31.3779 68.6863 31.3779ZM80.6672 24.3379V25.0739H80.6045C80.1654 24.5299 79.3186 24.0499 78.2522 24.0499C76.0254 24.0499 73.9554 26.0659 73.9554 28.6259C73.9554 31.1859 75.994 33.1699 78.2522 33.1699C79.3186 33.1699 80.1654 32.6899 80.6045 32.1459H80.6672V32.7859C80.6672 34.5139 79.7577 35.4739 78.2836 35.4739C77.0918 35.4739 76.339 34.5779 76.0254 33.8419L74.3318 34.5779C74.8336 35.7939 76.1195 37.2659 78.2836 37.2659C80.5731 37.2659 82.5177 35.8899 82.5177 32.5299V24.3379H80.6672ZM78.4404 31.3779C77.0918 31.3779 75.9627 30.2259 75.9627 28.6259C75.9627 27.0259 77.0918 25.8419 78.4404 25.8419C79.7891 25.8419 80.8241 27.0259 80.8241 28.6259C80.8241 30.2259 79.7577 31.3779 78.4404 31.3779ZM83.8977 19.5059H85.8736V32.8819H83.8977V19.5059ZM91.2368 31.3779C90.2331 31.3779 89.5431 30.8979 89.0727 30.0019L95.0318 27.4739L94.8122 26.9619C94.4359 25.9379 93.3068 24.0499 90.9859 24.0499C88.6963 24.0499 86.7831 25.9059 86.7831 28.5939C86.7831 31.1539 88.665 33.1379 91.2054 33.1379C93.244 33.1379 94.4359 31.8579 94.9377 31.1219L93.4009 30.0979C92.9304 30.8659 92.2404 31.3779 91.2368 31.3779ZM91.08 25.8099C91.864 25.8099 92.5227 26.1939 92.7422 26.7699L88.7591 28.4659C88.6963 26.7059 90.0763 25.8099 91.08 25.8099Z" fill="#FFF"/>
<path fill-rule="evenodd" clip-rule="evenodd" d="M103.657 19.5059H98.9522V32.8819H100.897V27.8259H103.625C105.789 27.8259 107.922 26.2259 107.922 23.6659C107.954 21.1059 105.821 19.5059 103.657 19.5059ZM103.719 25.9699H100.928V21.3619H103.719C105.194 21.3619 106.009 22.6099 106.009 23.6659C106.009 24.6899 105.162 25.9699 103.719 25.9699ZM110.996 32.8819V19.5059H109.051V32.8819H110.996ZM119.809 32.8819V27.7619C119.809 25.3939 118.053 24.0499 115.826 24.0499C114.414 24.0499 112.94 24.6899 112.344 26.0979L114.069 26.8339C114.446 26.0979 115.136 25.8419 115.857 25.8419C116.861 25.8419 117.896 26.4499 117.927 27.5699V27.6979C117.582 27.5059 116.829 27.1859 115.889 27.1859C114.007 27.1859 112.094 28.2419 112.094 30.1939C112.094 31.9859 113.63 33.1379 115.355 33.1379C116.673 33.1379 117.394 32.5299 117.864 31.8259H117.927V32.8499L119.809 32.8819ZM115.575 31.3779C114.948 31.3779 114.038 31.0579 114.038 30.2579C114.038 29.2339 115.167 28.8179 116.108 28.8179C116.955 28.8179 117.363 29.0099 117.896 29.2659C117.77 30.4499 116.767 31.3459 115.575 31.3779ZM126.678 24.3379L124.419 30.1299H124.357L122.036 24.3379H119.934L123.416 32.4659L121.409 36.9779H123.447L128.842 24.3379H126.678Z" fill="#FFF"/>
<path d="M43.4386 7.5083H48.2373V13.4283H48.8645V16.1803H47.7041V14.6443H43.3132V16.1803H42.1527V13.4283H42.7486C43.0309 12.8203 43.2191 12.1163 43.3132 11.3163C43.4073 10.5163 43.4386 9.4923 43.4386 8.2763V7.5083ZM44.7873 8.6923C44.7873 10.8363 44.5991 12.4363 44.2227 13.3963H46.8573V8.6923H44.7873Z" fill="#FFF"/>
<path d="M49.6173 11.9563C49.6173 11.5083 49.7114 11.0603 49.9309 10.6443C50.1505 10.2283 50.4641 9.90826 50.8719 9.68426C51.2796 9.46026 51.7187 9.36426 52.2205 9.36426C52.9732 9.36426 53.6005 9.62026 54.1023 10.1323C54.6041 10.6443 54.8237 11.2843 54.8237 12.0523C54.8237 12.8203 54.5728 13.4603 54.0709 13.9723C53.5691 14.4843 52.9732 14.7403 52.2205 14.7403C51.75 14.7403 51.3109 14.6443 50.9032 14.4203C50.4955 14.1963 50.1505 13.9083 49.9309 13.4923C49.7114 13.0763 49.6173 12.5643 49.6173 11.9563ZM50.9659 12.0523C50.9659 12.5643 51.0914 12.9483 51.3109 13.2363C51.5619 13.4923 51.8441 13.6523 52.1891 13.6523C52.5341 13.6523 52.8164 13.5243 53.0673 13.2363C53.3182 12.9803 53.4123 12.5643 53.4123 12.0523C53.4123 11.5403 53.2869 11.1563 53.0673 10.9003C52.8164 10.6443 52.5341 10.4843 52.1891 10.4843C51.8441 10.4843 51.5619 10.6123 51.3109 10.9003C51.0914 11.1563 50.9659 11.5403 50.9659 12.0523Z" fill="#FFF"/>
<path d="M60.1241 10.9963L58.8068 11.2523C58.7755 10.9963 58.65 10.7723 58.4932 10.6443C58.3364 10.5163 58.1482 10.4523 57.8973 10.4523C57.5523 10.4523 57.3014 10.5803 57.1132 10.8043C56.925 11.0283 56.8309 11.4443 56.8309 11.9883C56.8309 12.5963 56.925 13.0443 57.1446 13.2683C57.3641 13.4923 57.615 13.6523 57.96 13.6523C58.2109 13.6523 58.4305 13.5883 58.5873 13.4283C58.7441 13.2683 58.8696 13.0443 58.9323 12.6603L60.2496 12.8843C60.1241 13.4923 59.8418 13.9723 59.4655 14.2603C59.0891 14.5803 58.5559 14.7403 57.8973 14.7403C57.1446 14.7403 56.58 14.5163 56.1409 14.0363C55.7018 13.5563 55.4823 12.9163 55.4823 12.0523C55.4823 11.1883 55.7018 10.5483 56.1409 10.0683C56.58 9.58826 57.1759 9.36426 57.9287 9.36426C58.5559 9.36426 59.0264 9.49226 59.4028 9.78026C59.7164 10.0363 59.9673 10.4523 60.1241 10.9963Z" fill="#FFF"/>
<path d="M60.5319 9.45996H65.0796V10.548H63.48V14.58H62.1314V10.58H60.5319V9.45996Z" fill="#FFF"/>
<path d="M65.5187 9.45996H66.93L68.1219 13.108L69.3137 9.45996H70.6937L68.906 14.42L68.5923 15.316C68.4669 15.604 68.3728 15.86 68.2473 15.988C68.1532 16.148 68.0278 16.276 67.8709 16.372C67.7455 16.468 67.5573 16.532 67.3691 16.596C67.181 16.66 66.93 16.692 66.6791 16.692C66.4282 16.692 66.1773 16.66 65.9264 16.596L65.801 15.54C66.0205 15.572 66.2087 15.604 66.3655 15.604C66.6791 15.604 66.8987 15.508 67.0555 15.316C67.2123 15.124 67.3064 14.9 67.4005 14.612L65.5187 9.45996Z" fill="#FFF"/>
<path d="M71.5092 9.45996H75.9942V14.612H74.6455V10.58H72.8264V14.612H71.5092V9.45996Z" fill="#FFF"/>
<path d="M77.3741 9.45996H78.7227V11.348H80.6359V9.45996H81.9845V14.612H80.6045V12.436H78.6913V14.612H77.3427V9.45996H77.3741Z" fill="#FFF"/>
<path d="M82.9882 11.9563C82.9882 11.5083 83.0823 11.0603 83.3018 10.6443C83.5213 10.2283 83.835 9.90826 84.2427 9.68426C84.6504 9.46026 85.0895 9.36426 85.5913 9.36426C86.3441 9.36426 86.9713 9.62026 87.4732 10.1323C87.975 10.6443 88.1945 11.2843 88.1945 12.0523C88.1945 12.8203 87.9436 13.4603 87.4418 13.9723C86.94 14.4843 86.3441 14.7403 85.5913 14.7403C85.1209 14.7403 84.6818 14.6443 84.2741 14.4203C83.8663 14.1963 83.5213 13.9083 83.3018 13.4923C83.0823 13.0763 82.9882 12.5643 82.9882 11.9563ZM84.3682 12.0523C84.3682 12.5643 84.4936 12.9483 84.7132 13.2363C84.9641 13.4923 85.2463 13.6523 85.5913 13.6523C85.9363 13.6523 86.2186 13.5243 86.4695 13.2363C86.7204 12.9803 86.8145 12.5643 86.8145 12.0523C86.8145 11.5403 86.6891 11.1563 86.4695 10.9003C86.2186 10.6443 85.9363 10.4843 85.5913 10.4843C85.2463 10.4843 84.9641 10.6123 84.7132 10.9003C84.4622 11.1563 84.3682 11.5403 84.3682 12.0523Z" fill="#FFF"/>
<path d="M91.9582 9.45996H94.875C95.4709 9.45996 95.91 9.55596 96.2236 9.77996C96.5373 10.004 96.6627 10.324 96.6627 10.772C96.6627 11.06 96.5686 11.316 96.4118 11.508C96.255 11.732 96.0355 11.86 95.7845 11.924C96.1295 12.02 96.3805 12.18 96.5686 12.404C96.7255 12.628 96.8195 12.916 96.8195 13.204C96.8195 13.62 96.6627 13.94 96.3804 14.196C96.0982 14.452 95.6591 14.58 95.0945 14.58H91.9268V9.45996H91.9582ZM93.3068 11.604H94.1536C94.5614 11.604 94.875 11.54 95.0632 11.444C95.2514 11.348 95.3455 11.156 95.3455 10.932C95.3455 10.708 95.2514 10.548 95.0945 10.484C94.9377 10.388 94.6241 10.356 94.185 10.356H93.3382V11.604H93.3068ZM93.3068 13.748H94.3732C94.7495 13.748 95.0318 13.716 95.1886 13.62C95.3768 13.524 95.4395 13.364 95.4395 13.108C95.4395 12.852 95.3454 12.692 95.1259 12.596C94.9377 12.5 94.53 12.468 93.9655 12.468H93.2755V13.748H93.3068Z" fill="#FFF"/>
</g>
<defs>
<clipPath id="clip0_7413_49319">
<rect width="138" height="48" fill="white" transform="translate(0 0.5)"/>
</clipPath>
</defs>
</svg>
