<svg width="32" height="32" viewBox="0 0 32 32" fill="none" xmlns="http://www.w3.org/2000/svg">
<path d="M23.9781 20H26.5597C26.9417 20 27.308 19.8781 27.5781 19.6611C27.8483 19.4441 28 19.1497 28 18.8428V13.1572C28.0002 13.0052 27.963 12.8546 27.8907 12.7142C27.8184 12.5737 27.7123 12.4461 27.5785 12.3386C27.4448 12.2311 27.2859 12.1459 27.1111 12.0878C26.9362 12.0297 26.7489 11.9999 26.5597 12H23.9781C19.6021 12 19 13.9987 19 15.9995C19 18.0003 19.6021 20 23.9781 20Z" fill="#B0A078"/>
<path d="M8.02265 12H5.43877C5.24966 11.9999 5.06238 12.0297 4.88766 12.0878C4.71293 12.1459 4.55419 12.2312 4.42054 12.3387C4.28688 12.4462 4.18094 12.5738 4.10878 12.7143C4.03661 12.8547 3.99965 13.0052 4 13.1572V18.8428C3.99983 18.9947 4.03691 19.1452 4.10914 19.2856C4.18136 19.426 4.28731 19.5535 4.42093 19.661C4.55455 19.7685 4.71322 19.8537 4.88787 19.9119C5.06251 19.9701 5.24971 20 5.43877 20H8.02265C12.3966 20 13 18.0003 13 16.0005C13 14.0008 12.3953 12 8.02265 12Z" fill="#B0A078"/>
<path d="M20 8.02265V5.43877C20 5.24971 19.9701 5.06251 19.9119 4.88787C19.8537 4.71322 19.7685 4.55455 19.661 4.42093C19.5535 4.28731 19.426 4.18136 19.2856 4.10914C19.1452 4.03691 18.9947 3.99983 18.8428 4H13.1572C13.0052 3.99965 12.8547 4.03661 12.7143 4.10878C12.5738 4.18094 12.4462 4.28688 12.3387 4.42054C12.2312 4.55419 12.1459 4.71293 12.0878 4.88766C12.0297 5.06238 11.9999 5.24966 12 5.43877V8.02265C12 12.3966 13.9987 13 15.9995 13C18.0003 13 20 12.3953 20 8.02265Z" fill="#B0A078"/>
<path d="M12 23.9781V26.5597C11.9999 26.7488 12.0297 26.936 12.0877 27.1108C12.1457 27.2855 12.2309 27.4443 12.3383 27.5781C12.4457 27.7118 12.5732 27.8179 12.7135 27.8903C12.8539 27.9627 13.0043 28 13.1563 28H18.8427C19.1496 28 19.444 27.8483 19.661 27.5781C19.8781 27.308 20 26.9417 20 26.5597V23.9781C20 19.6021 18 19 16 19C14 19 12 19.6021 12 23.9781Z" fill="#B0A078"/>
</svg>
