<svg width="40" height="41" viewBox="0 0 40 41" fill="none" xmlns="http://www.w3.org/2000/svg">
<rect y="0.5" width="40" height="40" rx="20" fill="white"/>
<path d="M31 11.7708C30.9349 12.3546 30.8048 13.0032 30.6746 13.587C29.5682 18.7764 28.4619 23.9657 27.3555 29.155C27.2904 29.4793 27.2254 29.7388 27.0952 29.9982C26.8349 30.4523 26.4444 30.5821 25.9238 30.4523C25.5984 30.3875 25.338 30.2577 25.0777 30.0631C23.3856 28.8307 21.7586 27.5982 20.0666 26.3657C19.8713 26.236 19.7411 26.236 19.5459 26.4306C18.6999 27.209 17.9189 28.0523 17.0729 28.8307C16.7475 29.155 16.4221 29.3496 15.9665 29.2847C15.6411 29.2847 15.4459 29.155 15.3808 28.8307C14.8601 27.209 14.3395 25.6522 13.8189 24.0305C13.6236 23.5116 13.4284 22.9278 13.2982 22.4089C13.2332 22.2143 13.1681 22.0845 12.9078 22.0197C11.2808 21.5008 9.65375 20.9818 8.02675 20.5278C7.83151 20.4629 7.57119 20.398 7.37595 20.2683C6.92039 20.0088 6.85531 19.6196 7.31087 19.2304C7.57119 18.971 7.89659 18.8412 8.28707 18.7115C10.4998 17.8682 12.7125 17.025 14.9252 16.1817C19.7412 14.3654 24.492 12.4843 29.3079 10.6681C29.373 10.6681 29.373 10.6681 29.4381 10.6032C30.2841 10.2789 31 10.7329 31 11.7708ZM15.9665 27.7928C16.0316 27.7279 16.0316 27.6631 16.0316 27.6631C16.1617 26.4955 16.2268 25.3279 16.357 24.1603C16.357 23.9008 16.4871 23.6413 16.6824 23.4467C19.8062 20.6575 22.9301 17.8682 26.0539 15.079C26.2492 14.8844 26.4444 14.7546 26.6397 14.56C26.7047 14.4952 26.8349 14.4303 26.7698 14.3006C26.7047 14.1708 26.5746 14.1708 26.4444 14.1708C26.1841 14.1708 25.9888 14.3006 25.7936 14.4303C21.9539 16.8304 18.1142 19.2304 14.2744 21.6954C14.0792 21.8251 14.0141 21.9548 14.0792 22.2143C14.5347 23.6413 14.9903 25.0684 15.511 26.4955C15.6411 26.8847 15.8363 27.3387 15.9665 27.7928Z" fill="#5B5C5F"/>
</svg>
