<svg width="40" height="41" viewBox="0 0 40 41" fill="none" xmlns="http://www.w3.org/2000/svg">
<rect y="0.5" width="40" height="40" rx="20" fill="white"/>
<path d="M32.8462 14.1664C32.591 14.1563 32.3359 14.1865 32.0807 14.1865C30.7051 14.1966 29.3294 14.1966 27.9537 14.1966C27.5432 14.1966 27.2881 14.3881 27.1217 14.7307C26.7888 15.4159 26.4782 16.1112 26.1121 16.7762C25.4908 17.925 24.7586 19.0233 23.86 20.0209C23.6381 20.2728 23.3608 20.4844 23.0945 20.6859C22.7506 20.9479 22.2735 20.7968 22.1182 20.3433C21.9962 19.9907 21.9185 19.6078 21.9296 19.2349C21.9407 17.9552 21.9962 16.6654 22.0073 15.3856C22.0073 15.033 21.9296 14.6803 21.852 14.3276C21.7854 13.9951 21.5302 13.7935 21.1863 13.7331C20.7093 13.6424 20.2322 13.5618 19.7552 13.5416C18.5126 13.4711 17.2701 13.4812 16.0386 13.6424C15.5172 13.7129 15.0845 13.9044 14.7517 14.2671C14.5631 14.4687 14.5853 14.5392 14.8627 14.5896C15.7835 14.771 16.1274 15.1136 16.3049 16.0608C16.5046 17.1591 16.4935 18.2474 16.3382 19.3458C16.2716 19.7791 16.2272 20.2123 15.9721 20.5953C15.8279 20.7968 15.5838 20.9278 15.3397 20.8371C15.0624 20.7263 14.785 20.5852 14.5631 20.4038C13.9751 19.9201 13.5757 19.3155 13.2096 18.6807C12.5995 17.6327 12.0226 16.5747 11.4457 15.5166C11.3347 15.3151 11.2349 15.0934 11.1461 14.8818C10.9353 14.3981 10.5138 14.1664 9.97016 14.1664C8.60559 14.1462 7.24101 14.1765 5.87643 14.1865C5.52142 14.1865 5.21079 14.2772 5 14.5594C5 14.6702 5 14.781 5 14.8919C5.67674 16.1817 6.3202 17.4816 7.03022 18.7512C7.54055 19.6682 8.12854 20.5449 8.71653 21.4316C9.57077 22.7214 10.5803 23.9205 11.6343 25.0794C12.2334 25.7444 12.9545 26.2986 13.7533 26.7521C14.43 27.135 15.1178 27.5179 15.8389 27.8303C16.7376 28.2132 17.7028 28.4147 18.7012 28.4349C19.4778 28.4449 20.2433 28.4449 21.0199 28.4046C21.6301 28.3744 21.9074 28.062 21.9518 27.5078C21.9851 27.0645 22.0184 26.6312 22.1071 26.1979C22.1959 25.7746 22.4067 25.4119 22.795 25.1297C23.039 24.9484 23.2831 24.9383 23.5494 25.0491C24.0486 25.2607 24.4036 25.6134 24.7586 25.9762C25.3022 26.5102 25.8236 27.0645 26.3894 27.5784C26.9996 28.1225 27.7318 28.4853 28.6083 28.4953C29.407 28.5155 30.2169 28.4651 31.0157 28.4449C31.6591 28.4349 32.2915 28.4248 32.935 28.3946C33.5451 28.3744 33.8114 28.193 34 27.6791C34 27.6489 34 27.6187 34 27.5985C33.7892 26.6211 33.0681 25.9258 32.3581 25.2406C31.6148 24.5151 30.816 23.8299 30.0394 23.1346C29.8952 23.0036 29.751 22.8625 29.6178 22.7214C29.1741 22.2277 29.1408 21.7541 29.5513 21.2402C30.2391 20.3736 30.938 19.5271 31.637 18.6706C32.3692 17.7738 33.1014 16.8871 33.6339 15.8794C33.7781 15.6073 33.878 15.3151 34 15.0229C34 14.8919 34 14.771 34 14.64C33.767 14.1966 33.3011 14.1865 32.8462 14.1664Z" fill="#5B5C5F"/>
</svg>
