<svg width="201" height="42" viewBox="0 0 201 42" fill="none" xmlns="http://www.w3.org/2000/svg">
<g clip-path="url(#clip0_11208_69510)">
<path d="M34.4946 28.8649H38.4404C39.0242 28.8649 39.584 28.6253 39.9968 28.1987C40.4095 27.7721 40.6414 27.1936 40.6414 26.5904V15.4113C40.6414 14.808 40.4095 14.2295 39.9968 13.8029C39.584 13.3764 39.0242 13.1367 38.4404 13.1367H34.4946C27.8062 13.1367 26.8757 17.0672 26.8757 20.9998C26.8757 24.9323 27.8062 28.8649 34.4946 28.8649Z" fill="white"/>
<path d="M6.14681 13.1367H2.20096C1.61723 13.1367 1.05741 13.3764 0.644646 13.8029C0.231886 14.2295 0 14.808 0 15.4113L0 26.5904C0 27.1936 0.231886 27.7721 0.644646 28.1987C1.05741 28.6253 1.61723 28.8649 2.20096 28.8649H6.14681C12.8352 28.8649 13.7555 24.9344 13.7555 20.9998C13.7555 17.0651 12.8271 13.1367 6.14681 13.1367Z" fill="white"/>
<path d="M27.9303 6.35229V2.27454C27.9303 1.67129 27.6985 1.09275 27.2857 0.666196C26.8729 0.239638 26.3131 0 25.7294 0L14.9119 0C14.3282 0 13.7683 0.239638 13.3556 0.666196C12.9428 1.09275 12.7109 1.67129 12.7109 2.27454V6.35229C12.7109 13.2558 16.5143 14.2153 20.3196 14.2153C24.125 14.2153 27.9303 13.2558 27.9303 6.35229Z" fill="white"/>
<path d="M12.7109 35.6483V39.7261C12.7109 40.3293 12.9428 40.9079 13.3556 41.3344C13.7683 41.761 14.3282 42.0006 14.9119 42.0006H25.7294C26.3131 42.0006 26.8729 41.761 27.2857 41.3344C27.6985 40.9079 27.9303 40.3293 27.9303 39.7261V35.6483C27.9303 28.7364 24.127 27.7832 20.3196 27.7832C16.5122 27.7832 12.7109 28.7364 12.7109 35.6483Z" fill="white"/>
<path d="M52.2083 7.13281H54.9508L60.2445 14.6066L65.2796 7.13281H67.845V23.124H65.1534V11.5725L60.2669 18.6759H59.8597L54.9284 11.6356V23.1324H52.2083V7.13281Z" fill="white"/>
<path d="M71.4263 7.13281H80.3848V9.76084H74.1464V13.7376H79.7191V16.3677H74.1464V20.5044H80.6047V23.1324H71.4263V7.13281Z" fill="white"/>
<path d="M83.4329 7.13194H83.722C84.6504 7.13194 86.8616 7.0625 87.9977 7.0625C94.1913 7.0625 96.6916 10.7426 96.6916 14.9718C96.6916 19.4746 93.7271 23.1778 87.8205 23.1778C86.8921 23.1778 85.1737 23.1315 83.7484 23.1315H83.4369L83.4329 7.13194ZM86.155 9.75996V20.5035C86.9063 20.5498 87.5253 20.5498 87.902 20.5498C91.6401 20.5498 93.8065 18.3552 93.8065 14.9718C93.8065 11.7483 91.6401 9.69052 87.9468 9.69052C87.3054 9.69052 86.774 9.71367 86.155 9.75996Z" fill="white"/>
<path d="M99.4463 7.13281H102.166V23.124H99.4463V7.13281Z" fill="white"/>
<path d="M116.639 23.1324L108.114 12.048V23.1324H105.579V7.14123H107.745L116.258 18.2656V7.13281H118.801V23.124L116.639 23.1324Z" fill="white"/>
<path d="M134.175 21.5801C133.202 22.6532 131.233 23.3854 129.221 23.3854C124.488 23.3854 121.236 20.1157 121.236 15.1332C121.236 10.5399 124.046 6.88086 129.154 6.88086C131.168 6.88086 132.85 7.54365 133.866 8.50523L132.644 10.5841C131.619 9.85148 130.394 9.4756 129.148 9.51099C126.273 9.51099 124.105 11.6593 124.105 15.1332C124.105 18.4703 126.296 20.7553 129.458 20.7553C130.782 20.7563 132.07 20.3068 133.122 19.476L134.175 21.5801Z" fill="white"/>
<path d="M136.415 7.13281H145.373V9.76084H139.135V13.7376H144.71V16.3677H139.135V20.5044H145.593V23.1324H136.415V7.13281Z" fill="white"/>
<path d="M158.98 23.1324L150.464 12.048V23.1324H147.918V7.14123H150.087L158.608 18.2656V7.13281H161.151V23.124L158.98 23.1324Z" fill="white"/>
<path d="M163.307 7.13281H176.069V9.76084H171.048V23.1324H168.328V9.76084H163.307V7.13281Z" fill="white"/>
<path d="M177.977 23.1332V7.14199C178.838 7.14199 182.252 7.0957 182.688 7.0957C186.913 7.0957 188.305 9.26714 188.305 12.034C188.305 14.8009 186.601 16.1391 185.321 16.5957L190.166 23.1332H186.868L182.592 17.1449H180.691V23.1332H177.977ZM180.697 9.7616V14.519H182.466C184.036 14.519 185.431 13.6963 185.431 12.0509C185.431 10.7884 184.767 9.71742 182.556 9.71742C182.047 9.71531 181.428 9.73846 180.697 9.7616Z" fill="white"/>
<path d="M191.82 7.13281H200.778V9.76084H194.542V13.7376H200.114V16.3677H194.542V20.5044H201V23.1324H191.82V7.13281Z" fill="white"/>
<path d="M54.737 32.771H56.9766V35.1381C56.488 35.6431 55.5942 35.9377 54.906 35.9377C53.0959 35.9377 52.0229 34.7699 52.0229 32.9919C52.0229 31.3507 53.0898 30.0462 54.7797 30.0462C55.4206 30.0144 56.0515 30.2195 56.5593 30.6248L56.152 31.4265C55.8001 31.1305 55.3576 30.9738 54.9039 30.9846C53.835 30.9846 53.0532 31.7189 53.0532 32.994C53.0532 34.2102 53.8045 35.0034 54.9263 35.0034C55.339 35.0026 55.7407 34.8654 56.0726 34.6121V33.7136H54.737V32.771Z" fill="white"/>
<path d="M58.1799 30.1328H59.1511V34.9112H61.6412V35.8518H58.1799V30.1328Z" fill="white"/>
<path d="M64.1354 30.1172H64.9905L67.3299 35.8509H66.2936L65.7174 34.3885H63.3454L62.7692 35.8509H61.7878L64.1354 30.1172ZM63.7282 33.448H65.357L64.5426 31.4154L63.7282 33.448Z" fill="white"/>
<path d="M69.8626 35.8665H69.1276L66.8513 30.1328H67.8856L69.5307 34.3726L71.1026 30.1328H72.0758L69.8626 35.8665Z" fill="white"/>
<path d="M77.2962 33.4825C77.2962 35.2311 76.2619 35.9401 75.0994 35.9401C73.725 35.9401 72.7437 35.0985 72.7437 33.4257V30.1328H73.7169V33.2132C73.7169 34.2821 74.1424 35.0017 75.0994 35.0017C75.9362 35.0017 76.321 34.3894 76.321 33.2784V30.1328H77.2861L77.2962 33.4825Z" fill="white"/>
<path d="M78.7542 35.8509V30.1319C79.0636 30.1319 79.9391 30.1172 80.328 30.1172C81.9568 30.1172 82.4699 31.0156 82.4699 31.9541C82.4699 32.9262 81.7655 33.8078 80.4461 33.8078C80.2791 33.8078 79.9636 33.8078 79.7274 33.7825V35.8509H78.7542ZM79.7274 31.0724V32.8231C79.9552 32.8494 80.1843 32.8635 80.4135 32.8651C80.9918 32.8651 81.4417 32.579 81.4417 31.9414C81.4417 31.346 81.0854 31.0514 80.4237 31.0514C80.2201 31.0556 79.988 31.064 79.7274 31.0724Z" fill="white"/>
<path d="M83.5876 30.1325H83.6915C84.0234 30.1325 84.8133 30.1094 85.2165 30.1094C87.4297 30.1094 88.3214 31.4244 88.3214 32.9352C88.3214 34.5427 87.2627 35.8662 85.1534 35.8662C84.8215 35.8662 84.2046 35.8515 83.6996 35.8515H83.5876V30.1325ZM84.5609 31.0731V34.9109C84.8296 34.9278 85.0495 34.9278 85.1839 34.9278C86.5195 34.9278 87.2953 34.1429 87.2953 32.9352C87.2953 31.7842 86.5195 31.0415 85.2002 31.0415C84.9722 31.0478 84.7808 31.0562 84.5609 31.0731Z" fill="white"/>
<path d="M89.4412 30.1328H90.4144V32.845L92.595 30.1328H93.7637L91.4874 32.7966L93.9062 35.8518H92.6744L90.4144 32.906V35.8518H89.4412V30.1328Z" fill="white"/>
<path d="M100.896 33.4825C100.896 35.2311 99.8618 35.9401 98.6992 35.9401C97.3249 35.9401 96.3435 35.0985 96.3435 33.4257V30.1328H97.3228V33.2132C97.3228 34.2821 97.7484 35.0017 98.7053 35.0017C99.5442 35.0017 99.9392 34.3894 99.9392 33.2784V30.1328H100.902L100.896 33.4825Z" fill="white"/>
<path d="M106.306 35.8518L103.264 31.8897V35.8518H102.354V30.1328H103.129L106.171 34.1117V30.1328H107.081V35.8518H106.306Z" fill="white"/>
<path d="M108.611 30.1325H108.712C109.044 30.1325 109.836 30.1094 110.237 30.1094C112.451 30.1094 113.344 31.4244 113.344 32.9352C113.344 34.5427 112.286 35.8662 110.174 35.8662C109.842 35.8662 109.228 35.8515 108.721 35.8515H108.611V30.1325ZM109.582 31.0731V34.9109C109.851 34.9278 110.072 34.9278 110.207 34.9278C111.543 34.9278 112.316 34.1429 112.316 32.9352C112.316 31.7842 111.542 31.0415 110.221 31.0415C109.993 31.0478 109.804 31.0562 109.582 31.0731Z" fill="white"/>
<path d="M114.462 30.1328H117.665V31.0733H115.444V32.4936H117.435V33.4341H115.444V34.907H117.75V35.8476H114.462V30.1328Z" fill="white"/>
<path d="M119.005 35.8509V30.1319C119.312 30.1319 120.53 30.1172 120.688 30.1172C122.197 30.1172 122.696 30.8915 122.696 31.8804C122.712 32.2352 122.616 32.5858 122.423 32.88C122.231 33.1742 121.952 33.3962 121.627 33.5132L123.36 35.8509H122.181L120.656 33.711H119.978V35.8509H119.005ZM119.978 31.0724V32.7705H120.609C121.171 32.7705 121.668 32.4759 121.668 31.8888C121.668 31.4386 121.432 31.0472 120.65 31.0472C120.458 31.0556 120.238 31.064 119.978 31.0724Z" fill="white"/>
<path d="M125.188 30.1328H129.749V31.0733H127.955V35.8518H126.982V31.0733H125.188V30.1328Z" fill="white"/>
<path d="M134.094 33.4089H131.565V35.8518H130.592V30.1328H131.565V32.4705H134.094V30.1328H135.057V35.8518H134.094V33.4089Z" fill="white"/>
<path d="M136.586 30.1328H139.786V31.0733H137.559V32.4936H139.55V33.4341H137.559V34.907H139.876V35.8476H136.586V30.1328Z" fill="white"/>
<path d="M142.802 30.1328H143.783L145.671 32.805L147.472 30.1328H148.389V35.8518H147.426V31.7172L145.679 34.259H145.536L143.775 31.734V35.8433H142.802V30.1328Z" fill="white"/>
<path d="M149.918 30.1328H153.08V31.0733H150.891V32.6893H152.844V33.6298H150.891V35.8518H149.918V30.1328Z" fill="white"/>
<path d="M155.497 30.1172H156.35L158.689 35.8509H157.653L157.077 34.3885H154.713L154.128 35.8509H153.147L155.497 30.1172ZM155.089 33.448H156.718L155.904 31.4154L155.089 33.448Z" fill="white"/>
<path d="M163.655 30.0447C165.298 30.0447 166.54 31.2125 166.54 32.9904C166.54 34.7053 165.298 35.9362 163.655 35.9362C162.012 35.9362 160.778 34.7684 160.778 32.9904C160.768 32.5986 160.836 32.2088 160.978 31.845C161.119 31.4813 161.331 31.1513 161.601 30.8754C161.87 30.5995 162.192 30.3835 162.545 30.2406C162.898 30.0978 163.276 30.0311 163.655 30.0447ZM163.655 35.002C164.818 35.002 165.512 34.1204 165.512 32.9926C165.512 31.8079 164.697 30.9831 163.655 30.9831C162.612 30.9831 161.806 31.8079 161.806 32.9926C161.806 34.1351 162.621 35.002 163.655 35.002Z" fill="white"/>
<path d="M167.658 30.1328H170.824V31.0733H168.631V32.6893H170.581V33.6298H168.631V35.8518H167.658V30.1328Z" fill="white"/>
<path d="M173.573 35.8509V30.1319C173.882 30.1319 175.1 30.1172 175.256 30.1172C176.767 30.1172 177.264 30.8915 177.264 31.8804C177.28 32.235 177.184 32.5853 176.992 32.8795C176.8 33.1736 176.521 33.3959 176.197 33.5132L177.928 35.8509H176.751L175.226 33.711H174.546V35.8509H173.573ZM174.546 31.0724V32.7705H175.177C175.739 32.7705 176.238 32.4759 176.238 31.8888C176.238 31.4386 175.999 31.0472 175.209 31.0472C175.028 31.0556 174.806 31.064 174.546 31.0724Z" fill="white"/>
<path d="M183.244 33.4825C183.244 35.2311 182.209 35.9401 181.047 35.9401C179.672 35.9401 178.693 35.0985 178.693 33.4257V30.1328H179.664V33.2132C179.664 34.2821 180.092 35.0017 181.047 35.0017C181.886 35.0017 182.281 34.3894 182.281 33.2784V30.1328H183.244V33.4825Z" fill="white"/>
<path d="M184.418 31.6199C184.418 30.7614 185.066 30.0439 186.141 30.0439C186.431 30.0285 186.721 30.0748 186.994 30.1802C187.266 30.2855 187.514 30.4475 187.723 30.6562L187.202 31.4074C187.077 31.2689 186.925 31.1597 186.756 31.0871C186.587 31.0145 186.405 30.9802 186.222 30.9866C185.74 30.9866 185.447 31.2412 185.447 31.6178C185.447 32.8024 187.953 32.4258 187.953 34.33C187.953 35.2937 187.139 35.9459 186.102 35.9459C185.392 35.9459 184.561 35.6282 184.292 35.0475L184.846 34.3615C184.999 34.5593 185.193 34.7198 185.412 34.8314C185.632 34.9431 185.874 35.0032 186.119 35.0075C186.577 35.0075 186.933 34.7697 186.933 34.3384C186.923 33.2043 184.418 33.482 184.418 31.6199Z" fill="white"/>
<path d="M188.786 31.6198C188.786 30.7613 189.433 30.0438 190.508 30.0438C190.798 30.0286 191.088 30.0752 191.36 30.1805C191.632 30.2858 191.88 30.4477 192.088 30.6561L191.567 31.4073C191.443 31.2688 191.291 31.1596 191.122 31.087C190.953 31.0144 190.771 30.9801 190.588 30.9865C190.105 30.9865 189.814 31.2411 189.814 31.6177C189.814 32.8023 192.318 32.4257 192.318 34.3299C192.318 35.2936 191.504 35.9458 190.47 35.9458C189.757 35.9458 188.928 35.6281 188.66 35.0474L189.213 34.3614C189.366 34.5592 189.559 34.7196 189.779 34.8313C189.998 34.943 190.239 35.0031 190.484 35.0074C190.944 35.0074 191.298 34.7696 191.298 34.3383C191.29 33.2042 188.786 33.4819 188.786 31.6198Z" fill="white"/>
<path d="M193.556 30.1328H194.529V35.8518H193.556V30.1328Z" fill="white"/>
<path d="M197.808 30.1172H198.661L201 35.8509H199.964L199.387 34.3885H197.024L196.447 35.8509H195.46L197.808 30.1172ZM197.4 33.448H199.029L198.215 31.4154L197.4 33.448Z" fill="white"/>
</g>
<defs>
<clipPath id="clip0_11208_69510">
<rect width="201" height="42" fill="white"/>
</clipPath>
</defs>
</svg>
