<svg width="138" height="48" viewBox="0 0 138 48" fill="none" xmlns="http://www.w3.org/2000/svg">
<g clip-path="url(#clip0_9233_25940)">
<path fill-rule="evenodd" clip-rule="evenodd" d="M6.39813 1.7602C3.63813 2.4002 1.5054 5.0882 1.56813 8.0002C1.56813 18.6562 1.56813 29.3442 1.56813 40.0002C1.5054 43.3602 4.42222 46.5602 7.80949 46.3682C48.5822 46.3682 89.3863 46.3682 130.159 46.3682C133.546 46.5602 136.495 43.3602 136.4 39.9682C136.432 29.3442 136.432 18.6562 136.432 8.0002C136.526 4.5762 133.515 1.5042 130.159 1.6002C89.6059 1.6002 49.0527 1.6002 8.46813 1.6002C7.77813 1.6002 7.08813 1.6002 6.39813 1.7602ZM6.11586 0.2242C7.40177 -0.0638002 8.7504 0.000199796 10.0363 0.000199796C49.8681 0.000199796 89.7 0.000199796 129.532 0.000199796C131.32 0.000199796 133.233 0.2882 134.675 1.4722C136.871 2.9762 138.094 5.6642 138 8.3202C138 18.8802 138.031 29.4402 138 40.0002C138.063 43.3602 135.773 46.6242 132.605 47.5842C131.1 48.0642 129.532 48.0002 127.995 48.0002C88.665 48.0002 49.3663 48.0002 10.0677 48.0002C8.62495 48.0002 7.1195 48.0642 5.70813 47.6802C2.41495 46.8162 -5.11202e-05 43.4882 0.0626762 40.0322C-0.0314148 29.7602 0.0313125 19.5202 -5.11219e-05 9.2802C-5.11219e-05 8.0962 -0.0314148 6.8802 0.313585 5.7602C1.09768 3.0402 3.38722 0.7682 6.11586 0.2242Z" fill="#FFF"/>
<path fill-rule="evenodd" clip-rule="evenodd" d="M24.0914 39.8676C16.8085 39.8676 13.167 39.8676 10.9045 37.6367C8.64209 35.406 8.64209 31.8154 8.64209 24.6344V23.365C8.64209 16.1839 8.64209 12.5935 10.9045 10.3626C13.167 8.13184 16.8085 8.13184 24.0914 8.13184H25.3788C32.6618 8.13184 36.3032 8.13184 38.5657 10.3626C40.8282 12.5935 40.8282 16.1839 40.8282 23.365V24.6344C40.8282 31.8154 40.8282 35.406 38.5657 37.6367C36.3032 39.8676 32.6618 39.8676 25.3788 39.8676H24.0914ZM31.3157 28.6899L33.4905 29.2256C34.4754 29.4683 35.4303 28.7375 35.4303 27.7411V17.406C35.4303 16.5289 34.8223 15.7639 33.9551 15.5504L27.7175 14.014C26.7325 13.7714 25.7776 14.5022 25.7776 15.4986V17.3616L21.8475 16.3936C20.8626 16.151 19.9077 16.8818 19.9077 17.8782V19.7412L15.9774 18.7732C14.9924 18.5305 14.0376 19.2613 14.0376 20.2577V30.5927C14.0376 31.4699 14.6455 32.2348 15.5127 32.4484L21.7503 33.9847C22.7352 34.2274 23.6902 33.4966 23.6902 32.5002V30.7819L23.689 30.7816L23.6906 22.1804C23.6906 21.3085 23.132 20.8029 22.9291 20.6481C22.8904 20.6185 22.8797 20.5634 22.9074 20.5237C22.9347 20.4846 22.984 20.466 23.0301 20.4798C23.8519 20.7244 24.6384 21.5552 24.7169 22.5998L24.9882 30.4927C24.9971 30.752 25.1673 30.9768 25.4121 31.0613L27.6205 31.6052C28.6054 31.8479 29.5603 31.1171 29.5603 30.1207L29.5619 19.8018C29.5619 18.9299 29.0034 18.4244 28.8004 18.2695C28.7617 18.2399 28.751 18.1849 28.7787 18.1452C28.8061 18.106 28.8553 18.0875 28.9015 18.1012C29.7233 18.3459 30.5097 19.1767 30.5882 20.2213L30.8596 28.1135C30.8689 28.3836 31.0538 28.6159 31.3157 28.6899Z" fill="#FFF"/>
<path d="M59.6788 37.3622H57.2191L53.3161 31.9906H51.263V37.3622H49.1692V23.2314H54.2106C55.1863 23.2314 56.0604 23.4185 56.8329 23.7927C57.6053 24.1668 58.2016 24.6879 58.6217 25.3561C59.0554 26.0108 59.2723 26.7658 59.2723 27.621C59.2723 28.69 58.9402 29.6054 58.2762 30.367C57.6122 31.1153 56.7245 31.6097 55.6132 31.8502L59.6788 37.3622ZM51.263 25.1356V30.1064H54.2106C55.0778 30.1064 55.7759 29.8792 56.3044 29.4249C56.8464 28.9573 57.1175 28.3559 57.1175 27.621C57.1175 26.886 56.8464 26.2915 56.3044 25.8372C55.7759 25.3695 55.0778 25.1356 54.2106 25.1356H51.263Z" fill="#FFF"/>
<path d="M65.235 37.5625C64.4896 37.5625 63.8188 37.3821 63.2225 37.0214C62.6262 36.6472 62.1586 36.1394 61.8198 35.4981C61.481 34.8433 61.3116 34.1083 61.3116 33.2932V26.9995H63.3038V33.1329C63.3038 33.9212 63.5274 34.5627 63.9746 35.0571C64.4218 35.5515 64.9978 35.7987 65.7025 35.7987C66.4343 35.7987 67.0441 35.5448 67.532 35.037C68.0199 34.5292 68.2639 33.8945 68.2639 33.1329V26.9995H70.256V37.3621H68.833L68.3655 35.7987C68.0267 36.36 67.5794 36.7942 67.0238 37.1015C66.4817 37.4088 65.8854 37.5625 65.235 37.5625Z" fill="#FFF"/>
<path d="M77.6824 37.5633C76.3678 37.5633 75.2226 37.2293 74.2469 36.5611C73.2847 35.8797 72.6274 34.9577 72.275 33.7951L74.2875 33.4744C74.6805 34.2227 75.1481 34.7773 75.6902 35.138C76.2323 35.4855 76.8963 35.6592 77.6824 35.6592C78.4819 35.6592 79.1324 35.4855 79.6339 35.138C80.1353 34.7773 80.3859 34.2895 80.3859 33.6749C80.3859 33.2205 80.2437 32.8397 79.9591 32.5324C79.688 32.2251 79.3425 31.9778 78.9224 31.7908C78.5022 31.6037 77.9534 31.3966 77.2757 31.1695C76.3678 30.8754 75.6224 30.5814 75.0397 30.2875C74.457 29.9935 73.9623 29.5793 73.5558 29.0448C73.1627 28.4969 72.9662 27.8021 72.9662 26.9603C72.9662 26.1719 73.1627 25.4837 73.5558 24.8957C73.9623 24.2945 74.5179 23.8335 75.2226 23.5127C75.9274 23.192 76.7134 23.0317 77.5807 23.0317C78.7868 23.0317 79.8235 23.3457 80.6909 23.9738C81.5582 24.5884 82.1748 25.4369 82.5408 26.5193L80.569 26.84C80.2979 26.2253 79.9117 25.7576 79.4102 25.4369C78.9088 25.1029 78.3193 24.9358 77.6417 24.9358C76.9099 24.9358 76.3068 25.1095 75.8325 25.457C75.3582 25.7911 75.121 26.252 75.121 26.84C75.121 27.2809 75.2565 27.6551 75.5276 27.9624C75.8122 28.2698 76.1577 28.517 76.5643 28.704C76.9844 28.8911 77.5401 29.1049 78.2312 29.3455C79.112 29.6394 79.8439 29.9401 80.4266 30.2474C81.0229 30.5414 81.5243 30.9623 81.9309 31.5101C82.3374 32.0581 82.5408 32.7462 82.5408 33.5746C82.5408 34.3764 82.324 35.078 81.8903 35.6792C81.4702 36.2805 80.8874 36.7482 80.142 37.0823C79.4102 37.403 78.5903 37.5633 77.6824 37.5633Z" fill="#FFF"/>
<path d="M90.9555 35.639L90.7729 37.3627H88.9229C87.8247 37.3627 86.9918 37.0955 86.4225 36.561C85.8532 36.0265 85.5681 35.2581 85.5681 34.256V28.744H83.7593V27.0001H85.5681L86.1176 23.9937H87.5603V27.0001H90.7729V28.744H87.5603V34.256C87.5603 35.178 88.0145 35.639 88.9229 35.639H90.9555Z" fill="#FFF"/>
<path d="M97.5995 37.5627C96.5284 37.5627 95.5732 37.3355 94.7332 36.8813C93.8931 36.4269 93.2357 35.7922 92.7608 34.9771C92.2868 34.162 92.0494 33.2333 92.0494 32.191C92.0494 31.1488 92.2868 30.2201 92.7608 29.405C93.2357 28.5898 93.8931 27.9551 94.7332 27.5008C95.5732 27.0332 96.5284 26.7993 97.5995 26.7993C98.6698 26.7993 99.625 27.0332 100.465 27.5008C101.306 27.9551 101.962 28.5898 102.437 29.405C102.911 30.2201 103.149 31.1488 103.149 32.191C103.149 33.2333 102.911 34.162 102.437 34.9771C101.962 35.7922 101.306 36.4269 100.465 36.8813C99.625 37.3355 98.6698 37.5627 97.5995 37.5627ZM97.5995 35.7588C98.6293 35.7588 99.4622 35.4314 100.1 34.7767C100.75 34.1219 101.076 33.26 101.076 32.191C101.076 31.1221 100.75 30.2602 100.1 29.6054C99.4622 28.9373 98.6293 28.6032 97.5995 28.6032C96.5688 28.6032 95.736 28.9373 95.0992 29.6054C94.4616 30.2602 94.1432 31.1221 94.1432 32.191C94.1432 33.2466 94.4616 34.1085 95.0992 34.7767C95.736 35.4314 96.5688 35.7588 97.5995 35.7588Z" fill="#FFF"/>
<path d="M105.285 37.3621V26.9995H106.728L107.155 28.4828C107.467 27.9616 107.853 27.5874 108.314 27.3603C108.774 27.1198 109.324 26.9995 109.961 26.9995H110.448L110.611 28.8837H109.472C108.741 28.8837 108.192 29.0908 107.826 29.505C107.46 29.9192 107.277 30.4804 107.277 31.1886V37.3621H105.285Z" fill="#FFF"/>
<path d="M122 32.1109C122 32.3781 121.994 32.5852 121.98 32.7322H113.299C113.408 33.6542 113.774 34.3891 114.397 34.937C115.021 35.4849 115.814 35.7588 116.775 35.7588C117.44 35.7588 118.029 35.6318 118.545 35.378C119.073 35.1107 119.473 34.7633 119.743 34.3357L121.614 34.6364C121.208 35.5717 120.55 36.2933 119.642 36.801C118.748 37.3088 117.751 37.5627 116.654 37.5627C115.611 37.5627 114.675 37.3355 113.849 36.8813C113.022 36.4136 112.378 35.7721 111.918 34.9571C111.456 34.142 111.226 33.2199 111.226 32.191C111.226 31.1488 111.456 30.2201 111.918 29.405C112.378 28.5898 113.015 27.9551 113.828 27.5008C114.641 27.0332 115.569 26.7993 116.614 26.7993C117.643 26.7993 118.564 27.0332 119.377 27.5008C120.205 27.9551 120.848 28.5898 121.309 29.405C121.77 30.2067 122 31.1087 122 32.1109ZM116.614 28.5431C115.814 28.5431 115.122 28.7769 114.54 29.2446C113.97 29.7123 113.591 30.3403 113.401 31.1287H119.825C119.649 30.3537 119.269 29.7323 118.687 29.2646C118.117 28.7837 117.427 28.5431 116.614 28.5431Z" fill="#FFF"/>
<path d="M52.1315 17.8125C51.4192 17.8125 50.7788 17.647 50.2104 17.3161C49.642 16.9779 49.1959 16.5102 48.8721 15.913C48.5555 15.3158 48.3972 14.6431 48.3972 13.8948C48.3972 13.1465 48.5555 12.4773 48.8721 11.8873C49.1959 11.2901 49.6384 10.826 50.1996 10.4951C50.768 10.1569 51.4084 9.98779 52.1207 9.98779C52.8906 9.98779 53.5741 10.1821 54.1713 10.5706C54.7757 10.9519 55.2074 11.47 55.4665 12.1248L54.3656 12.2974C54.1641 11.8945 53.8655 11.5815 53.4698 11.3585C53.0813 11.1282 52.6424 11.0131 52.1531 11.0131C51.6494 11.0131 51.1997 11.1354 50.804 11.3801C50.4155 11.6247 50.1097 11.9665 49.8866 12.4054C49.6708 12.8371 49.5628 13.3335 49.5628 13.8948C49.5628 14.4632 49.6708 14.9668 49.8866 15.4057C50.1097 15.8375 50.4191 16.1756 50.8148 16.4203C51.2105 16.6649 51.6638 16.7872 52.1747 16.7872C52.6783 16.7872 53.1244 16.6721 53.513 16.4418C53.9087 16.2044 54.2109 15.8734 54.4196 15.4489L55.5204 15.6216C55.247 16.2907 54.8045 16.8232 54.1929 17.2189C53.5813 17.6147 52.8942 17.8125 52.1315 17.8125Z" fill="#FFF"/>
<path d="M61.1599 17.7048H59.7676L57.7062 15.3952H57.3717V17.7048H56.314V12.125H57.3717V14.3807H57.6954L59.6705 12.125H60.944L58.5481 14.8232L61.1599 17.7048Z" fill="#FFF"/>
<path d="M63.6749 12.0166C64.3656 12.0166 64.9089 12.2432 65.3046 12.6965C65.7075 13.1426 65.909 13.7686 65.909 14.5745V17.7044H65.1535L64.9053 16.8302C64.7254 17.1108 64.4844 17.3446 64.1822 17.5317C63.88 17.7188 63.5166 17.8123 63.0921 17.8123C62.718 17.8123 62.3834 17.7367 62.0884 17.5857C61.7934 17.4346 61.5631 17.2259 61.3976 16.9597C61.2322 16.6863 61.1494 16.3805 61.1494 16.0423C61.1494 15.517 61.3581 15.0961 61.7754 14.7795C62.1927 14.463 62.7971 14.3047 63.5886 14.3047H64.8513C64.8225 13.8658 64.7002 13.5276 64.4844 13.2901C64.2685 13.0455 63.9807 12.9232 63.6209 12.9232C63.3475 12.9232 63.1065 12.9879 62.8978 13.1175C62.6892 13.247 62.5309 13.4161 62.423 13.6247L61.4408 13.4628C61.5847 13.0167 61.8617 12.6642 62.2719 12.4051C62.682 12.1461 63.1497 12.0166 63.6749 12.0166ZM63.3188 16.9165C63.772 16.9165 64.139 16.769 64.4196 16.474C64.7074 16.1718 64.8513 15.7581 64.8513 15.2328V15.1681H63.6209C62.6856 15.1681 62.2179 15.4487 62.2179 16.0099C62.2179 16.2833 62.3186 16.5028 62.5201 16.6683C62.7216 16.8338 62.9878 16.9165 63.3188 16.9165Z" fill="#FFF"/>
<path d="M70.0541 15.6758C69.8814 15.755 69.6763 15.8161 69.4389 15.8593C69.2014 15.9025 68.9676 15.924 68.7374 15.924C68.0682 15.924 67.5538 15.737 67.194 15.3628C66.8342 14.9887 66.6544 14.4598 66.6544 13.7763V12.125H67.712V13.7763C67.712 14.5749 68.097 14.9743 68.8669 14.9743C69.3346 14.9743 69.7303 14.8915 70.0541 14.726V12.125H71.1118V17.7048H70.0541V15.6758Z" fill="#FFF"/>
<path d="M74.5526 12.0166C75.2433 12.0166 75.7866 12.2432 76.1823 12.6965C76.5852 13.1426 76.7867 13.7686 76.7867 14.5745V17.7044H76.0312L75.783 16.8302C75.6031 17.1108 75.3621 17.3446 75.0599 17.5317C74.7577 17.7188 74.3943 17.8123 73.9698 17.8123C73.5956 17.8123 73.2611 17.7367 72.9661 17.5857C72.6711 17.4346 72.4408 17.2259 72.2753 16.9597C72.1098 16.6863 72.0271 16.3805 72.0271 16.0423C72.0271 15.517 72.2358 15.0961 72.6531 14.7795C73.0704 14.463 73.6748 14.3047 74.4663 14.3047H75.729C75.7002 13.8658 75.5779 13.5276 75.3621 13.2901C75.1462 13.0455 74.8584 12.9232 74.4986 12.9232C74.2252 12.9232 73.9842 12.9879 73.7755 13.1175C73.5669 13.247 73.4086 13.4161 73.3006 13.6247L72.3185 13.4628C72.4624 13.0167 72.7394 12.6642 73.1495 12.4051C73.5597 12.1461 74.0274 12.0166 74.5526 12.0166ZM74.1964 16.9165C74.6497 16.9165 75.0167 16.769 75.2973 16.474C75.5851 16.1718 75.729 15.7581 75.729 15.2328V15.1681H74.4986C73.5633 15.1681 73.0956 15.4487 73.0956 16.0099C73.0956 16.2833 73.1963 16.5028 73.3978 16.6683C73.5992 16.8338 73.8655 16.9165 74.1964 16.9165Z" fill="#FFF"/>
<path d="M79.5286 17.7045H77.9636V12.1246H78.9889V16.5173H79.1508L81.4065 12.1246H82.9715V17.7045H81.9461V13.3226H81.7843L79.5286 17.7045ZM80.4783 11.4015C80.0106 11.4015 79.6185 11.2792 79.3019 11.0346C78.9925 10.7827 78.8091 10.4086 78.7515 9.91211H79.6149C79.6509 10.1424 79.7408 10.3186 79.8847 10.441C80.0358 10.5561 80.2337 10.6136 80.4783 10.6136C80.723 10.6136 80.9172 10.5561 81.0611 10.441C81.2122 10.3186 81.3022 10.1424 81.331 9.91211H82.2052C82.1404 10.4086 81.9497 10.7827 81.6332 11.0346C81.3238 11.2792 80.9388 11.4015 80.4783 11.4015Z" fill="#FFF"/>
<path d="M86.6476 17.7048H85.5899V13.0963H83.6582V12.125H88.5795V13.0963H86.6476V17.7048Z" fill="#FFF"/>
<path d="M94.469 14.8767C94.469 15.0206 94.4654 15.1321 94.4582 15.2112H89.8497C89.9073 15.7077 90.1015 16.1034 90.4325 16.3984C90.7635 16.6934 91.1844 16.841 91.6952 16.841C92.0478 16.841 92.3608 16.7726 92.6342 16.6359C92.9148 16.492 93.1271 16.3049 93.271 16.0747L94.2639 16.2366C94.0481 16.7402 93.6991 17.1288 93.217 17.4022C92.7421 17.6756 92.2133 17.8123 91.6305 17.8123C91.0765 17.8123 90.58 17.69 90.1411 17.4453C89.7022 17.1935 89.3604 16.8481 89.1158 16.4092C88.8712 15.9703 88.7488 15.4739 88.7488 14.9198C88.7488 14.3586 88.8712 13.8586 89.1158 13.4197C89.3604 12.9808 89.6986 12.639 90.1303 12.3943C90.562 12.1425 91.0549 12.0166 91.6089 12.0166C92.1557 12.0166 92.645 12.1425 93.0767 12.3943C93.5156 12.639 93.8574 12.9808 94.102 13.4197C94.3467 13.8514 94.469 14.337 94.469 14.8767ZM91.6089 12.9556C91.1844 12.9556 90.8174 13.0815 90.508 13.3333C90.2059 13.5851 90.0044 13.9233 89.9037 14.3478H93.3142C93.2206 13.9305 93.0192 13.5959 92.7098 13.3441C92.4076 13.0851 92.0406 12.9556 91.6089 12.9556Z" fill="#FFF"/>
<path d="M99.2177 17.7048H97.6528V12.125H98.6781V16.5176H98.84L101.096 12.125H102.661V17.7048H101.635V13.323H101.473L99.2177 17.7048Z" fill="#FFF"/>
<path d="M106.942 14.8551C107.237 14.9414 107.481 15.0997 107.675 15.33C107.87 15.553 107.967 15.83 107.967 16.161C107.967 16.4704 107.877 16.751 107.697 17.0028C107.517 17.2475 107.258 17.4453 106.92 17.5964C106.589 17.7403 106.204 17.8123 105.765 17.8123C105.175 17.8123 104.668 17.6756 104.243 17.4022C103.819 17.1216 103.538 16.7474 103.401 16.2797L104.384 16.1178C104.621 16.6359 105.078 16.8949 105.754 16.8949C106.128 16.8949 106.413 16.8266 106.607 16.6899C106.808 16.546 106.909 16.3481 106.909 16.0963C106.909 15.8732 106.816 15.6933 106.629 15.5566C106.449 15.4199 106.157 15.3516 105.754 15.3516H105.02V14.4234H105.754C106.1 14.4234 106.362 14.3586 106.542 14.2291C106.729 14.0996 106.823 13.9269 106.823 13.7111C106.823 13.4808 106.722 13.2937 106.521 13.1498C106.326 13.0059 106.085 12.934 105.797 12.934C105.517 12.934 105.265 13.0023 105.042 13.139C104.819 13.2758 104.65 13.4628 104.535 13.7003L103.553 13.5276C103.718 13.0455 104.002 12.675 104.405 12.4159C104.815 12.1497 105.29 12.0166 105.83 12.0166C106.218 12.0166 106.567 12.085 106.877 12.2217C107.193 12.3584 107.438 12.549 107.611 12.7937C107.791 13.0383 107.88 13.3117 107.88 13.6139C107.88 13.9233 107.794 14.1859 107.621 14.4018C107.449 14.6176 107.222 14.7687 106.942 14.8551Z" fill="#FFF"/>
</g>
<defs>
<clipPath id="clip0_9233_25940">
<rect width="138" height="48" fill="white"/>
</clipPath>
</defs>
</svg>
