<svg version="1.1" id="Layer_1" xmlns="http://www.w3.org/2000/svg" xmlns:xlink="http://www.w3.org/1999/xlink" x="128px" y="128px"
	 width="100%" viewBox="0 0 3258 3258" enable-background="new 0 0 3258 3258" xml:space="preserve">
<path fill="#FFFFFF" opacity="1.000000" stroke="none" 
	d="
M1738.000000,3260.000000 
	C1667.948364,3260.000000 1597.896606,3260.000000 1527.347412,3259.453125 
	C1539.652222,3254.551270 1548.796997,3246.334473 1552.497314,3233.148438 
	C1553.905029,3228.131836 1554.240967,3222.677979 1554.242554,3217.422852 
	C1554.322021,2949.119873 1554.312500,2680.816650 1554.312378,2412.513672 
	C1554.312378,2410.847168 1554.144653,2409.160400 1554.343994,2407.518066 
	C1554.915527,2402.810791 1553.024658,2399.417236 1549.690918,2396.117920 
	C1526.712524,2373.376953 1503.907227,2350.461426 1481.006714,2327.641602 
	C1479.768311,2326.407715 1478.172607,2325.532471 1475.687500,2323.720215 
	C1475.687500,2329.148682 1475.687500,2333.098877 1475.687500,2337.049072 
	C1475.687500,2630.349365 1475.687500,2923.649414 1475.687500,3216.949707 
	C1475.687500,3218.949463 1475.786377,3220.955078 1475.670410,3222.948242 
	C1475.245117,3230.255371 1478.004517,3236.481201 1481.528687,3242.705566 
	C1486.651245,3251.752930 1495.697632,3255.304199 1504.000000,3260.000000 
	C1003.479797,3260.000000 502.959595,3260.000000 2.000000,3260.000000 
	C2.000000,2797.948486 2.000000,2335.896729 2.648743,1873.167725 
	C4.187852,1873.875122 5.266466,1875.174316 5.939560,1876.657471 
	C13.133731,1892.509521 25.212624,1900.222046 42.798706,1900.513672 
	C52.391914,1900.672607 60.234356,1897.119873 68.096947,1892.676514 
	C132.063858,1856.526001 196.000565,1820.322021 260.010986,1784.248779 
	C346.324738,1735.606445 432.697754,1687.069092 519.033386,1638.465454 
	C521.541626,1637.053345 523.914978,1635.401489 527.397827,1633.199951 
	C511.635681,1624.178101 496.977081,1615.774170 482.305969,1607.392212 
	C356.145203,1535.314819 229.990616,1463.226440 103.808113,1391.187134 
	C89.371796,1382.945068 75.184227,1374.105957 60.154804,1367.103027 
	C38.902538,1357.200317 14.113811,1366.591431 6.223809,1390.689331 
	C5.627859,1392.509399 4.897858,1394.285522 3.672760,1396.055908 
	C2.743576,1396.019897 2.371788,1396.009888 2.000000,1396.000000 
	C2.000000,931.468933 2.000000,466.937805 2.000000,2.000000 
	C502.718262,2.000000 1003.436646,2.000000 1504.666504,2.563310 
	C1499.998779,6.017560 1494.191895,8.172387 1489.765625,11.946524 
	C1479.245239,20.917074 1475.550293,32.767460 1475.556885,46.661285 
	C1475.723022,392.653687 1475.760010,738.646240 1475.413696,1084.638428 
	C1475.400269,1098.064453 1477.208984,1108.776489 1489.862305,1115.393921 
	C1490.710205,1115.837402 1491.307495,1116.760864 1492.020508,1117.461914 
	C1509.362793,1134.513184 1526.677490,1151.592773 1544.076294,1168.586182 
	C1546.771240,1171.218506 1549.850586,1173.457031 1554.312744,1177.179565 
	C1554.312744,1171.066284 1554.312744,1167.164185 1554.312744,1163.261963 
	C1554.312744,791.603333 1554.312866,419.944733 1554.312744,48.286129 
	C1554.312744,46.286175 1554.316650,44.286201 1554.310669,42.286266 
	C1554.278442,31.436243 1550.698364,21.722731 1542.756714,14.516323 
	C1537.251587,9.520876 1530.303345,6.115717 1524.000000,1.999993 
	C1595.385010,2.000000 1666.770020,2.000000 1738.676514,2.567414 
	C1721.785889,8.428936 1710.137817,28.263836 1710.146362,44.406147 
	C1710.344727,418.917938 1710.298828,793.429871 1710.318359,1167.941772 
	C1710.318481,1170.422119 1710.604004,1172.902588 1710.836792,1176.696167 
	C1713.449341,1174.578247 1715.015381,1173.500244 1716.356689,1172.192017 
	C1730.421143,1158.474121 1744.369751,1144.636475 1758.521362,1131.009399 
	C1765.702637,1124.094238 1772.700439,1116.796509 1780.759033,1111.040649 
	C1788.262817,1105.681152 1789.855957,1099.348511 1789.851562,1090.733276 
	C1789.674438,743.876709 1789.700439,397.020081 1789.700317,50.163406 
	C1789.700317,48.164230 1789.798950,46.159328 1789.683716,44.166782 
	C1788.691406,26.992329 1781.851685,13.455155 1765.744507,5.635837 
	C1763.718750,4.652360 1761.909546,3.222871 1760.000000,2.000009 
	C2259.854004,2.000000 2759.708252,2.000000 3260.000000,2.000000 
	C3260.000000,467.384918 3260.000000,932.769958 3259.410156,1398.572021 
	C3258.619141,1387.697876 3254.696289,1378.309937 3245.207520,1371.574585 
	C3230.697510,1361.275269 3215.537842,1360.513062 3200.215332,1369.075806 
	C3170.600586,1385.625488 3141.168701,1402.503296 3111.704346,1419.321167 
	C2989.511230,1489.067505 2867.333008,1558.839844 2745.162109,1628.625366 
	C2742.782715,1629.984375 2740.563721,1631.623779 2737.552979,1633.603882 
	C2742.194580,1636.309448 2745.591309,1638.346069 2749.039551,1640.291016 
	C2845.219971,1694.540894 2941.406982,1748.778564 3037.589355,1803.025146 
	C3092.052734,1833.742432 3146.473877,1864.535278 3200.994629,1895.150635 
	C3214.434570,1902.697754 3228.393555,1902.778320 3242.049561,1895.684937 
	C3250.945312,1891.064209 3256.166748,1883.012451 3260.000000,1874.000000 
	C3260.000000,2335.864502 3260.000000,2797.729248 3260.000000,3260.000000 
	C2761.281738,3260.000000 2262.563232,3260.000000 1763.231445,3259.384521 
	C1768.088867,3255.104248 1774.245361,3252.142578 1778.881714,3247.622070 
	C1787.437378,3239.280518 1789.763550,3228.339844 1789.760498,3216.556396 
	C1789.684082,2922.704590 1789.700562,2628.853027 1789.700317,2335.001221 
	C1789.700317,2333.002197 1789.849365,2330.987793 1789.649170,2329.008789 
	C1789.473755,2327.277344 1788.903809,2325.585449 1788.250000,2322.760986 
	C1784.731689,2326.087891 1782.037231,2328.490234 1779.505249,2331.052979 
	C1758.908447,2351.900879 1738.541016,2372.981445 1717.631470,2393.510010 
	C1712.159912,2398.882080 1710.148193,2404.272461 1710.157227,2411.810547 
	C1710.346069,2568.064697 1710.299561,2724.319336 1710.299561,2880.573730 
	C1710.299561,2993.849854 1710.348389,3107.126221 1710.248901,3220.402344 
	C1710.233398,3238.057129 1718.683228,3249.892822 1733.949707,3257.610840 
	C1735.345581,3258.316406 1736.652100,3259.199219 1738.000000,3260.000000 
M1319.700439,2335.000000 
	C1319.700439,2281.685791 1319.676270,2228.371582 1319.739624,2175.057373 
	C1319.745728,2169.969482 1319.415649,2165.613037 1315.229858,2161.556396 
	C1291.790161,2138.840088 1268.682495,2115.781250 1245.427490,2092.873779 
	C1244.369751,2091.831787 1242.984863,2091.122070 1240.299561,2089.238525 
	C1240.299561,2094.645508 1240.299561,2098.510498 1240.299561,2102.375244 
	C1240.299561,2464.583008 1240.299561,2826.790527 1240.300049,3188.998291 
	C1240.300049,3191.664062 1240.060547,3194.357422 1240.353271,3196.990967 
	C1241.971069,3211.552734 1248.901367,3223.107422 1262.029419,3229.562988 
	C1275.725464,3236.297852 1289.729858,3235.823975 1302.694458,3226.801514 
	C1314.894653,3218.311279 1319.796387,3206.489990 1319.790161,3191.703613 
	C1319.669067,2906.802490 1319.700317,2621.901123 1319.700439,2335.000000 
M2004.816528,3228.243164 
	C2013.943481,3222.525391 2020.464111,3214.650635 2022.893311,3204.126465 
	C2024.146851,3198.696289 2024.265991,3192.918457 2024.266846,3187.297607 
	C2024.325928,2825.103271 2024.320190,2462.908936 2024.320068,2100.714600 
	C2024.320068,2099.048584 2024.417969,2097.375244 2024.295288,2095.718262 
	C2024.141235,2093.640137 2023.806274,2091.575684 2023.409424,2088.376465 
	C2020.011719,2091.623291 2017.594971,2093.846191 2015.273926,2096.164551 
	C1994.763916,2116.651123 1974.498779,2137.390625 1953.640747,2157.515869 
	C1946.945068,2163.976318 1944.069702,2170.430176 1944.077637,2179.987793 
	C1944.352783,2514.859131 1944.307251,2849.730469 1944.307373,3184.602051 
	C1944.307373,3187.267578 1943.858154,3190.029053 1944.398682,3192.580322 
	C1945.831299,3199.341797 1946.556519,3206.585693 1949.596680,3212.611572 
	C1958.584106,3230.425537 1981.307739,3240.425537 2004.816528,3228.243164 
M631.188538,2394.174072 
	C693.955200,2357.847412 756.714783,2321.508301 819.489929,2285.196289 
	C947.920105,2210.906494 1076.359985,2136.633789 1204.780640,2062.327393 
	C1206.635010,2061.254395 1208.289917,2059.835938 1208.797607,2059.470703 
	C1189.457031,2039.980591 1170.548340,2020.925781 1151.183105,2001.410767 
	C1148.539062,2002.787964 1144.938232,2004.486206 1141.507324,2006.477417 
	C1085.688232,2038.871460 1029.933716,2071.376709 974.077759,2103.707031 
	C898.069702,2147.701660 821.960205,2191.520996 745.945068,2235.503418 
	C650.347351,2290.816406 554.809021,2346.231934 459.229706,2401.576904 
	C403.956177,2433.582764 348.683624,2465.590576 293.341370,2497.477051 
	C278.843658,2505.830566 271.866364,2517.499268 271.332581,2534.768066 
	C270.651245,2556.812012 293.859528,2578.843262 318.954468,2572.224609 
	C324.953796,2570.642334 330.855072,2568.008789 336.244904,2564.895508 
	C434.186005,2508.320801 532.041992,2451.599121 631.188538,2394.174072 
M2911.800781,2555.176270 
	C2919.279785,2559.525879 2926.728027,2563.929443 2934.243652,2568.214600 
	C2954.201660,2579.594971 2975.739258,2570.781006 2984.750488,2559.041992 
	C3000.585693,2538.413818 2995.343994,2511.233154 2972.833984,2498.186523 
	C2897.122314,2454.304932 2821.377930,2410.479248 2745.648682,2366.627686 
	C2654.657959,2313.939209 2563.686279,2261.218018 2472.676758,2208.562744 
	C2360.643311,2143.743896 2248.583008,2078.971436 2136.520020,2014.203491 
	C2128.545898,2009.594849 2120.454346,2005.189697 2114.561768,2001.890381 
	C2094.520020,2021.946655 2075.551758,2040.928833 2056.509521,2059.984863 
	C2058.761719,2061.390137 2062.071045,2063.591309 2065.504883,2065.577393 
	C2132.326904,2104.224365 2199.175049,2142.826660 2265.994629,2181.478516 
	C2365.650879,2239.125000 2465.284912,2296.809326 2564.935791,2354.465332 
	C2680.136963,2421.118408 2795.345703,2487.758301 2911.800781,2555.176270 
M2302.835938,517.835571 
	C2288.877930,525.927734 2274.919922,534.019897 2259.693848,542.847229 
	C2259.693848,537.120911 2259.694092,533.174927 2259.694092,529.229004 
	C2259.694092,406.602539 2259.694092,283.976044 2259.693359,161.349579 
	C2259.693359,158.683792 2259.861328,156.004456 2259.655029,153.354507 
	C2258.616699,140.018188 2255.247803,127.696091 2243.428467,119.600479 
	C2230.001953,110.403893 2215.817383,108.593933 2201.057373,116.246300 
	C2186.550781,123.767326 2180.359619,136.246002 2180.311035,152.168457 
	C2180.090088,224.798615 2179.780273,297.428680 2179.704590,370.059021 
	C2179.600586,470.026123 2179.678711,569.993469 2179.678711,669.960693 
	C2179.678711,673.151245 2179.678711,676.341797 2179.678711,680.834106 
	C2183.403320,679.065491 2185.789307,678.132202 2187.979980,676.862488 
	C2217.910645,659.515564 2247.813721,642.121643 2277.724121,624.740173 
	C2363.144531,575.100708 2448.561523,525.454407 2533.988281,475.826050 
	C2569.653320,455.106781 2605.375000,434.484894 2641.000977,413.698792 
	C2655.209717,405.408691 2662.796387,392.494751 2661.226074,376.388214 
	C2659.224121,355.852325 2647.140869,345.285278 2631.028809,340.860138 
	C2618.290283,337.361450 2606.933350,341.467529 2595.889404,347.887085 
	C2498.684326,404.389374 2401.398926,460.753723 2302.835938,517.835571 
M2530.200195,2876.845459 
	C2534.820068,2879.487549 2539.453125,2882.106445 2544.057129,2884.775635 
	C2562.187988,2895.286621 2580.346191,2905.750977 2598.421143,2916.357178 
	C2610.231445,2923.287598 2622.553223,2925.318604 2635.525146,2920.395264 
	C2651.477295,2914.341064 2660.274902,2902.014160 2661.221436,2885.592773 
	C2662.117188,2870.047363 2655.214355,2857.474609 2641.113281,2849.294678 
	C2573.784424,2810.236816 2506.545166,2771.024658 2439.264648,2731.883057 
	C2361.918945,2686.885010 2284.572510,2641.888184 2207.201172,2596.934570 
	C2198.451660,2591.850830 2189.539795,2587.047363 2179.678711,2581.541992 
	C2179.678711,2587.230469 2179.673584,2591.215088 2179.678955,2595.199707 
	C2179.887451,2744.803467 2180.100586,2894.407227 2180.302246,3044.010986 
	C2180.331299,3065.670410 2180.305908,3087.329590 2180.306885,3108.989014 
	C2180.306885,3110.988281 2180.154541,3113.003174 2180.343994,3114.984619 
	C2181.988281,3132.173584 2193.014648,3148.906982 2216.547607,3150.922852 
	C2233.642334,3152.387451 2250.993896,3143.218018 2256.265381,3125.808105 
	C2258.439209,3118.629150 2259.543213,3110.845703 2259.555176,3103.334717 
	C2259.750977,2980.042969 2259.693848,2856.751221 2259.694092,2733.459229 
	C2259.694092,2729.641357 2259.693848,2725.823486 2259.693848,2720.673096 
	C2263.398438,2722.444824 2265.474609,2723.270508 2267.387695,2724.377686 
	C2305.966553,2746.704834 2344.535889,2769.049316 2383.088867,2791.421143 
	C2431.710938,2819.635742 2480.317383,2847.877686 2530.200195,2876.845459 
M1005.681824,2749.023438 
	C1005.681824,2867.688965 1005.676331,2986.354736 1005.703979,3105.020264 
	C1005.704956,3109.343018 1005.554565,3113.747803 1006.282532,3117.975098 
	C1010.286621,3141.226807 1028.257446,3152.043457 1047.141113,3151.114014 
	C1070.551392,3149.961670 1084.249878,3133.805176 1084.314087,3110.129395 
	C1084.779175,2938.515381 1085.233276,2766.901367 1085.688965,2595.287354 
	C1085.697021,2592.287354 1085.715698,2589.287109 1085.662964,2586.287842 
	C1085.641846,2585.090576 1085.440796,2583.896729 1085.229492,2581.776367 
	C1082.920166,2582.792725 1081.421143,2583.289062 1080.083862,2584.064209 
	C1041.506836,2606.423584 1002.926392,2628.777344 964.385864,2651.199707 
	C883.850769,2698.053955 803.347534,2744.962891 722.811523,2791.815430 
	C690.023865,2810.889893 657.227722,2829.951172 624.347595,2848.865234 
	C612.190247,2855.859131 604.885376,2866.035645 603.823303,2879.970947 
	C602.644592,2895.437744 608.412231,2908.064941 621.698242,2916.558350 
	C635.156616,2925.162109 649.217346,2925.197754 663.260620,2918.041016 
	C669.771973,2914.722656 675.959106,2910.767334 682.289124,2907.093750 
	C736.682983,2875.526367 791.063293,2843.935303 845.473022,2812.395020 
	C895.850891,2783.192139 946.256104,2754.036621 996.667358,2724.891357 
	C999.302551,2723.367676 1002.105896,2722.134766 1005.681580,2720.339111 
	C1005.681580,2730.384521 1005.681580,2738.711670 1005.681824,2749.023438 
M1005.815308,147.749039 
	C1005.770813,151.747726 1005.687744,155.746414 1005.687561,159.745102 
	C1005.680664,283.407074 1005.681946,407.069031 1005.681946,530.731018 
	C1005.681946,534.252686 1005.681885,537.774353 1005.681885,542.773254 
	C1000.795776,540.157898 997.315308,538.422729 993.956909,536.476929 
	C968.045288,521.464600 942.165955,506.396271 916.260132,491.373901 
	C854.949280,455.820679 793.635742,420.272186 732.309814,384.744965 
	C708.988586,371.234497 685.724854,357.620697 662.260315,344.362915 
	C642.431274,333.159210 617.851379,343.201233 608.566895,360.027374 
	C598.988342,377.386597 603.349243,402.708679 624.615784,414.120544 
	C633.407349,418.838196 641.920410,424.075500 650.552612,429.089325 
	C722.772705,471.036469 794.995850,512.978271 867.208496,554.938110 
	C937.406250,595.727295 1007.588928,636.542542 1077.802979,677.303589 
	C1079.924438,678.535095 1082.322632,679.289734 1085.690430,680.739624 
	C1085.690430,675.734680 1085.714844,672.127014 1085.686768,668.519775 
	C1085.234497,610.573792 1084.487671,552.628357 1084.379883,494.681732 
	C1084.170288,382.019745 1084.319092,269.357086 1084.315308,156.694687 
	C1084.315186,153.362061 1084.491333,150.009766 1084.200684,146.700439 
	C1083.253418,135.916199 1078.838257,126.837624 1070.138672,120.190659 
	C1042.868652,99.354668 1007.543518,119.561760 1005.815308,147.749039 
M2024.320312,745.000000 
	C2024.320312,523.755615 2024.323608,302.511230 2024.295898,81.266846 
	C2024.295288,76.613373 2024.345459,71.898926 2023.667480,67.317154 
	C2020.897583,48.599422 2005.825073,33.985668 1987.940186,32.326939 
	C1970.142456,30.676298 1953.381348,41.635933 1947.445068,59.811535 
	C1945.324463,66.304466 1944.433838,73.479156 1944.430786,80.343307 
	C1944.288330,391.218231 1944.307373,702.093201 1944.307373,1012.968201 
	C1944.307373,1016.221252 1944.307251,1019.474304 1944.307251,1022.572876 
	C1971.200439,1017.665771 1997.197388,1012.922241 2024.320557,1007.973206 
	C2024.320557,921.413086 2024.320557,834.206543 2024.320312,745.000000 
M1319.700439,435.000031 
	C1319.700439,316.024200 1319.700439,197.048370 1319.700317,78.072548 
	C1319.700317,75.739693 1319.781616,73.403214 1319.681885,71.074554 
	C1318.974976,54.565292 1307.481079,39.191174 1292.115845,34.144352 
	C1276.926392,29.155224 1260.453613,33.884811 1249.889038,46.812023 
	C1242.659058,55.658829 1240.228149,66.130745 1240.232910,77.532585 
	C1240.323730,289.822998 1240.299561,502.113434 1240.299561,714.403870 
	C1240.299561,808.718140 1240.299561,903.032410 1240.299561,997.346680 
	C1240.299561,1001.219238 1240.299561,1005.091797 1240.299561,1008.033752 
	C1267.478394,1012.901978 1293.171997,1017.504211 1319.700195,1022.255920 
	C1319.700195,826.840393 1319.700195,631.920227 1319.700439,435.000031 
M842.559814,1907.591675 
	C736.129028,1969.401123 629.710938,2031.232422 523.264099,2093.014404 
	C406.462524,2160.806152 289.669067,2228.612305 172.778061,2296.249756 
	C156.596481,2305.612793 150.258224,2319.733643 152.594910,2337.313232 
	C154.772690,2353.697510 164.312073,2365.033203 180.570190,2370.387695 
	C193.150375,2374.530762 203.443710,2370.711914 214.410187,2364.288086 
	C284.443176,2323.263916 354.827209,2282.839600 425.033539,2242.110596 
	C534.080688,2178.849365 643.047180,2115.449219 752.106384,2052.208496 
	C839.008606,2001.816040 926.004761,1951.585571 1012.936646,1901.244141 
	C1020.838013,1896.668579 1028.575684,1891.810425 1035.754761,1887.467407 
	C1016.342041,1867.729370 997.474548,1848.545654 978.112488,1828.859253 
	C933.525574,1854.740234 888.665833,1880.779663 842.559814,1907.591675 
M2600.153564,2010.819580 
	C2495.494629,1950.111816 2390.835938,1889.404053 2286.075684,1828.637451 
	C2266.003418,1848.181152 2246.769531,1866.908813 2227.095459,1886.064941 
	C2229.445068,1887.850708 2230.631836,1888.968750 2232.005615,1889.763428 
	C2245.539307,1897.591919 2259.128662,1905.325195 2272.656738,1913.163696 
	C2342.316650,1953.526245 2411.972900,1993.895630 2481.612061,2034.293701 
	C2567.652344,2084.206055 2653.674561,2134.150146 2739.705811,2184.078857 
	C2795.237549,2216.306885 2850.768066,2248.538086 2906.305908,2280.756104 
	C2956.662598,2309.968750 3007.000488,2339.214111 3057.448242,2368.268555 
	C3061.067871,2370.353027 3065.457520,2371.845703 3069.597656,2372.153564 
	C3088.523193,2373.560059 3106.587646,2361.096924 3111.114746,2342.962891 
	C3115.412354,2325.748779 3110.234131,2306.573975 3092.671143,2296.442139 
	C3017.749268,2253.220459 2943.003174,2209.694824 2868.184082,2166.294922 
	C2779.264160,2114.715576 2690.334961,2063.151367 2600.153564,2010.819580 
M2608.913818,1836.098999 
	C2657.270508,1864.133423 2705.629150,1892.165283 2753.983643,1920.203247 
	C2814.137207,1955.082764 2874.294189,1989.957153 2934.438232,2024.852783 
	C3001.489014,2063.755615 3068.519043,2102.693848 3135.581787,2141.575684 
	C3143.473145,2146.151123 3151.788574,2148.948730 3161.217529,2148.405762 
	C3177.756104,2147.453369 3189.829346,2139.987305 3196.265381,2124.698730 
	C3202.622559,2109.597168 3200.785400,2095.194580 3189.377686,2083.076416 
	C3184.908691,2078.329102 3179.248047,2074.447266 3173.567383,2071.136719 
	C3115.503906,2037.298828 3057.323730,2003.660767 2999.177734,1969.964600 
	C2904.183594,1914.914917 2809.187256,1859.869019 2714.198486,1804.810303 
	C2640.799561,1762.265869 2567.411621,1719.702759 2494.016602,1677.151733 
	C2477.668701,1667.673706 2461.311768,1658.210693 2444.999512,1648.764282 
	C2429.810547,1670.878174 2415.036133,1692.388428 2399.761963,1714.626465 
	C2410.709473,1721.039307 2421.515381,1727.427612 2432.376221,1733.721680 
	C2490.810791,1767.585693 2549.259277,1801.426270 2608.913818,1836.098999 
M637.709167,1846.750244 
	C713.553040,1802.720825 789.396973,1758.691528 865.262573,1714.649536 
	C849.760315,1692.212158 834.958740,1670.788940 819.854370,1648.927490 
	C815.886047,1651.092896 812.069336,1653.061035 808.361389,1655.216064 
	C762.058044,1682.127808 715.801208,1709.119507 669.471619,1735.985962 
	C595.803711,1778.705688 522.077209,1821.324463 448.398804,1864.026001 
	C339.898102,1926.909302 231.405365,1989.806274 122.943855,2052.757080 
	C108.566750,2061.101318 93.867516,2069.039307 80.244568,2078.500488 
	C58.570595,2093.552734 61.166531,2129.829102 84.228104,2142.835449 
	C100.815399,2152.189941 116.491562,2149.121826 132.307816,2139.879150 
	C203.247589,2098.424316 274.378143,2057.295898 345.447327,2016.062744 
	C400.978149,1983.844727 456.504059,1951.618042 512.062317,1919.447266 
	C553.513916,1895.445068 595.013611,1871.525879 637.709167,1846.750244 
M3199.739258,1170.086182 
	C3203.985840,1159.858521 3204.199463,1149.852905 3200.347168,1139.167603 
	C3195.218994,1124.942139 3181.977539,1114.501343 3166.788574,1113.581177 
	C3155.584473,1112.902344 3146.000977,1116.590698 3136.594482,1122.062500 
	C3067.025879,1162.531738 2997.392822,1202.890991 2927.771240,1243.269287 
	C2841.175537,1293.492065 2754.575684,1343.707642 2667.968750,1393.911621 
	C2613.876709,1425.267456 2559.763184,1456.586792 2505.678955,1487.956909 
	C2501.776123,1490.220581 2498.036133,1492.765259 2492.542236,1496.241211 
	C2519.974365,1512.179199 2545.700928,1527.126343 2571.478760,1542.103149 
	C2584.660400,1534.474243 2597.310303,1527.164429 2609.949951,1519.836548 
	C2670.083984,1484.974121 2730.214844,1450.106201 2790.347168,1415.240845 
	C2866.590088,1371.033936 2942.837646,1326.834106 3019.075928,1282.618652 
	C3073.162842,1251.250122 3127.208008,1219.809570 3181.352783,1188.541504 
	C3188.769775,1184.258179 3194.735596,1178.785767 3199.739258,1170.086182 
M252.723251,1194.293945 
	C224.520630,1177.959717 196.318375,1161.625000 168.115265,1145.291626 
	C152.862457,1136.458130 137.639359,1127.572876 122.343819,1118.813965 
	C111.978027,1112.878296 100.818153,1111.850708 89.552948,1115.172119 
	C72.570740,1120.178833 64.078545,1132.902710 62.015259,1149.587891 
	C59.868244,1166.949951 67.995834,1179.572144 82.937668,1188.239868 
	C182.471497,1245.979004 281.951721,1303.810547 381.487823,1361.545654 
	C477.569305,1417.276978 573.692627,1472.936157 669.812317,1528.601562 
	C677.802246,1533.228760 685.904907,1537.661133 693.744202,1542.065552 
	C719.646362,1526.325562 745.689026,1512.594849 771.473328,1496.254761 
	C768.480286,1493.984375 766.827393,1492.433594 764.917786,1491.324951 
	C703.946533,1455.926758 642.945801,1420.579468 581.959534,1385.207153 
	C527.587952,1353.671265 473.242004,1322.091064 418.859406,1290.574341 
	C363.902740,1258.724609 308.914795,1226.928955 252.723251,1194.293945 
M2472.197266,1055.188232 
	C2529.740723,1021.763977 2587.268555,988.312134 2644.831543,954.921021 
	C2753.622070,891.813843 2862.443848,828.760437 2971.197266,765.589355 
	C2975.743896,762.948364 2980.419678,759.956909 2983.858154,756.083679 
	C2996.738037,741.575867 2997.229736,721.234070 2985.673828,705.597229 
	C2974.915771,691.039917 2954.524902,685.922119 2937.237305,693.742554 
	C2932.105469,696.064148 2927.324463,699.174561 2922.428955,702.003540 
	C2866.542236,734.299133 2810.635986,766.561829 2754.790527,798.928589 
	C2669.291992,848.481506 2583.848633,898.129883 2498.358887,947.697876 
	C2433.019287,985.582458 2367.640381,1023.398193 2302.293945,1061.270996 
	C2298.099365,1063.702271 2294.036621,1066.360840 2290.096191,1068.799805 
	C2313.102539,1086.175659 2335.553955,1103.132324 2359.017090,1120.853027 
	C2395.588379,1099.633301 2433.258545,1077.776123 2472.197266,1055.188232 
M563.055420,921.909912 
	C600.744995,943.793762 638.433044,965.680176 676.124512,987.560913 
	C750.935181,1030.989990 825.743835,1074.422729 900.566528,1117.831177 
	C907.140015,1121.644775 907.141052,1121.314697 913.471436,1116.062134 
	C924.212341,1107.150146 935.036743,1098.316528 946.175964,1089.913940 
	C955.385376,1082.967041 965.100159,1076.690063 975.631226,1069.395630 
	C971.704590,1066.905518 968.782104,1064.907837 965.728271,1063.136719 
	C867.875549,1006.384155 770.014282,949.646484 672.145508,892.921570 
	C578.019287,838.365845 483.885559,783.823120 389.750397,729.282837 
	C369.886932,717.774231 350.158630,706.019897 330.080109,694.898621 
	C313.152771,685.522705 293.268005,689.827820 280.200073,704.260986 
	C269.496033,716.083313 267.595764,741.159119 279.530151,754.126709 
	C284.590546,759.625183 291.110413,764.073303 297.612244,767.903503 
	C332.583710,788.505005 367.747345,808.780579 402.864990,829.133545 
	C455.829834,859.830017 508.811554,890.497375 563.055420,921.909912 
M829.323547,2552.296875 
	C907.021912,2507.262451 984.721130,2462.229248 1062.417358,2417.190918 
	C1070.160889,2412.702637 1077.887939,2408.185059 1085.245972,2403.900391 
	C1087.043457,2374.954102 1086.244873,2320.059570 1083.869629,2312.657471 
	C1080.639282,2314.430664 1077.429810,2316.107422 1074.301270,2317.923340 
	C1038.630981,2338.627441 1002.996521,2359.393799 967.306519,2380.063965 
	C901.106750,2418.404053 834.847839,2456.642334 768.665894,2495.013184 
	C675.435486,2549.066406 582.249512,2603.196777 489.052032,2657.306885 
	C472.655396,2666.827148 456.122559,2676.128418 439.962189,2686.035645 
	C419.963623,2698.296387 416.404022,2728.673828 433.346680,2745.981689 
	C447.002747,2759.932373 466.887115,2762.612305 484.574707,2752.373779 
	C503.861664,2741.209229 523.042236,2729.860840 542.322815,2718.685059 
	C637.572937,2663.476807 732.840759,2608.298828 829.323547,2552.296875 
M2680.822998,2602.154785 
	C2594.512207,2552.108643 2508.194336,2502.074951 2421.893066,2452.012451 
	C2351.989258,2411.461670 2282.113281,2370.862793 2212.204590,2330.320068 
	C2201.932129,2324.362549 2191.548096,2318.598389 2180.268066,2312.208008 
	C2180.021240,2315.837158 2179.705566,2318.348145 2179.701904,2320.859619 
	C2179.665039,2345.845947 2179.858398,2370.834717 2179.551025,2395.817383 
	C2179.476074,2401.915039 2181.498779,2405.268311 2186.840088,2408.348633 
	C2253.101562,2446.565674 2319.183105,2485.094482 2385.359375,2523.459229 
	C2503.897705,2592.180420 2622.468018,2660.845947 2741.026611,2729.532227 
	C2754.840576,2737.535156 2768.539062,2745.749023 2782.524170,2753.441406 
	C2795.400635,2760.524414 2808.923340,2760.702148 2821.657959,2753.548584 
	C2849.895264,2737.686035 2848.600098,2699.021240 2821.093262,2683.395996 
	C2774.539062,2656.949951 2728.406250,2629.762939 2680.822998,2602.154785 
M424.130920,558.080261 
	C427.664642,568.067078 434.999756,574.586853 443.851837,579.735291 
	C466.283417,592.781677 488.713562,605.830688 511.136475,618.892029 
	C581.566467,659.917603 651.969910,700.988831 722.427307,741.967224 
	C787.707642,779.934692 853.034424,817.822205 918.359070,855.713379 
	C971.885254,886.760864 1025.434082,917.769348 1078.997803,948.752075 
	C1080.807739,949.799011 1082.887695,950.379089 1085.686523,951.521606 
	C1085.686523,922.058167 1085.617676,893.751648 1085.758057,865.446228 
	C1085.780029,861.014099 1083.494751,859.108276 1080.023560,857.153076 
	C1064.951172,848.663147 1050.020874,839.920471 1035.057373,831.237854 
	C948.156860,780.814026 861.268738,730.368896 774.362122,679.955566 
	C717.097229,646.737061 659.807434,613.561218 602.530334,580.363708 
	C562.235413,557.009033 522.075012,533.417603 481.575989,510.422424 
	C467.951111,502.686218 453.435089,502.783203 439.923187,511.325439 
	C424.082336,521.340027 418.565643,537.489136 424.130920,558.080261 
M2561.786865,638.822571 
	C2560.327393,639.620911 2558.849854,640.388000 2557.410889,641.222046 
	C2481.984131,684.941772 2406.565430,728.675415 2331.135254,772.389221 
	C2283.344238,800.085388 2235.598145,827.860046 2187.658936,855.297974 
	C2181.670654,858.725403 2179.399658,862.518433 2179.516357,869.428589 
	C2179.932373,894.088196 2179.661865,918.759094 2179.706055,943.425598 
	C2179.710449,945.900513 2180.084961,948.374817 2180.366211,951.808533 
	C2184.221436,949.708252 2187.113770,948.220581 2189.922607,946.589233 
	C2236.248535,919.682861 2282.553223,892.739807 2328.884277,865.842529 
	C2393.633789,828.252380 2458.423096,790.730408 2523.156250,753.111938 
	C2608.605225,703.454956 2694.020508,653.740417 2779.438965,604.030823 
	C2794.105225,595.495667 2808.656250,586.761047 2823.365967,578.301941 
	C2837.987549,569.893555 2846.345459,552.670715 2842.073242,534.867920 
	C2836.125000,510.080872 2806.952637,497.188995 2784.149414,509.933624 
	C2759.173340,523.892761 2734.552490,538.489441 2709.803467,552.853516 
	C2660.878906,581.248657 2611.972900,609.674988 2561.786865,638.822571 
M3095.007324,966.143921 
	C3113.572510,954.659241 3119.649414,931.294128 3107.367188,911.154968 
	C3096.933594,894.047302 3072.142090,886.790039 3052.158936,899.109314 
	C3046.215332,902.773621 3040.136963,906.221497 3034.091064,909.717957 
	C2954.911377,955.510681 2875.705566,1001.258484 2796.547852,1047.088867 
	C2692.058105,1107.585938 2587.599854,1168.137329 2483.143311,1228.691406 
	C2473.131836,1234.495117 2463.227051,1240.483154 2453.735352,1246.111206 
	C2463.733154,1271.580200 2473.362305,1296.109985 2483.248535,1321.294800 
	C2687.069580,1202.973022 2890.418945,1084.925049 3095.007324,966.143921 
M727.506836,1197.544189 
	C724.361023,1195.674927 721.232361,1193.776001 718.066956,1191.940430 
	C634.045410,1143.218994 550.020020,1094.504272 465.995270,1045.788330 
	C401.827179,1008.584961 337.666382,971.368958 273.486420,934.186096 
	C253.627289,922.680664 233.628098,911.413879 213.874039,899.731750 
	C206.508255,895.375793 198.536896,892.110535 190.359085,892.754639 
	C169.249054,894.417358 157.003845,905.142334 152.868454,921.771912 
	C148.667755,938.664185 152.037003,953.575195 169.049408,965.442261 
	C174.487595,969.235596 180.457077,972.271301 186.207184,975.612793 
	C261.268341,1019.231506 336.320557,1062.865601 411.402039,1106.449341 
	C480.730286,1146.693481 550.102478,1186.861816 619.433594,1227.100830 
	C670.353455,1256.654053 721.231628,1286.279175 772.154053,1315.828003 
	C775.484375,1317.760376 779.034546,1319.313843 781.854065,1320.728394 
	C791.771606,1295.433838 801.317017,1271.088379 811.178528,1245.936768 
	C783.991211,1230.154907 756.416931,1214.148438 727.506836,1197.544189 
z"/>
<path fill="#254fc3 " opacity="1.000000" stroke="none" 
	d="
M1759.091797,2.000009 
	C1761.909546,3.222871 1763.718750,4.652360 1765.744507,5.635837 
	C1781.851685,13.455155 1788.691406,26.992329 1789.683716,44.166782 
	C1789.798950,46.159328 1789.700317,48.164230 1789.700317,50.163406 
	C1789.700439,397.020081 1789.674438,743.876709 1789.851562,1090.733276 
	C1789.855957,1099.348511 1788.262817,1105.681152 1780.759033,1111.040649 
	C1772.700439,1116.796509 1765.702637,1124.094238 1758.521362,1131.009399 
	C1744.369751,1144.636475 1730.421143,1158.474121 1716.356689,1172.192017 
	C1715.015381,1173.500244 1713.449341,1174.578247 1710.836792,1176.696167 
	C1710.604004,1172.902588 1710.318481,1170.422119 1710.318359,1167.941772 
	C1710.298828,793.429871 1710.344727,418.917938 1710.146362,44.406147 
	C1710.137817,28.263836 1721.785889,8.428936 1739.598999,2.567414 
	C1746.061157,2.000000 1752.122437,2.000000 1759.091797,2.000009 
z"/>
<path fill="#254fc3 " opacity="1.000000" stroke="none" 
	d="
M1523.100098,1.999993 
	C1530.303345,6.115717 1537.251587,9.520876 1542.756714,14.516323 
	C1550.698364,21.722731 1554.278442,31.436243 1554.310669,42.286266 
	C1554.316650,44.286201 1554.312744,46.286175 1554.312744,48.286129 
	C1554.312866,419.944733 1554.312744,791.603333 1554.312744,1163.261963 
	C1554.312744,1167.164185 1554.312744,1171.066284 1554.312744,1177.179565 
	C1549.850586,1173.457031 1546.771240,1171.218506 1544.076294,1168.586182 
	C1526.677490,1151.592773 1509.362793,1134.513184 1492.020508,1117.461914 
	C1491.307495,1116.760864 1490.710205,1115.837402 1489.862305,1115.393921 
	C1477.208984,1108.776489 1475.400269,1098.064453 1475.413696,1084.638428 
	C1475.760010,738.646240 1475.723022,392.653687 1475.556885,46.661285 
	C1475.550293,32.767460 1479.245239,20.917074 1489.765625,11.946524 
	C1494.191895,8.172387 1499.998779,6.017560 1505.589111,2.563310 
	C1511.400024,2.000000 1516.800049,2.000000 1523.100098,1.999993 
z"/>
<path fill="#254fc3 " opacity="1.000000" stroke="none" 
	d="
M4.230156,1396.082153 
	C4.897858,1394.285522 5.627859,1392.509399 6.223809,1390.689331 
	C14.113811,1366.591431 38.902538,1357.200317 60.154804,1367.103027 
	C75.184227,1374.105957 89.371796,1382.945068 103.808113,1391.187134 
	C229.990616,1463.226440 356.145203,1535.314819 482.305969,1607.392212 
	C496.977081,1615.774170 511.635681,1624.178101 527.397827,1633.199951 
	C523.914978,1635.401489 521.541626,1637.053345 519.033386,1638.465454 
	C432.697754,1687.069092 346.324738,1735.606445 260.010986,1784.248779 
	C196.000565,1820.322021 132.063858,1856.526001 68.096947,1892.676514 
	C60.234356,1897.119873 52.391914,1900.672607 42.798706,1900.513672 
	C25.212624,1900.222046 13.133731,1892.509521 5.939560,1876.657471 
	C5.266466,1875.174316 4.187852,1873.875122 2.648743,1872.245361 
	C2.000000,1865.277466 2.000000,1858.554810 2.686651,1850.782715 
	C9.563860,1836.049805 20.531635,1827.807617 33.504845,1820.733765 
	C69.127853,1801.310059 104.228783,1780.930054 139.573944,1760.995239 
	C207.945847,1722.433472 276.349976,1683.928955 344.720490,1645.364746 
	C351.603485,1641.482300 358.347656,1637.353882 366.154785,1632.750854 
	C362.528198,1630.357666 359.909943,1628.419067 357.102783,1626.809937 
	C324.783478,1608.281006 292.429382,1589.812622 260.096344,1571.307495 
	C182.148621,1526.695679 104.261528,1481.977539 26.202324,1437.561646 
	C14.996714,1431.185425 8.179747,1422.222046 4.989549,1409.261963 
	C4.687868,1404.358887 4.459013,1400.220581 4.230156,1396.082153 
z"/>
<path fill="#254fc3 " opacity="1.000000" stroke="none" 
	d="
M3260.000000,1873.073608 
	C3256.166748,1883.012451 3250.945312,1891.064209 3242.049561,1895.684937 
	C3228.393555,1902.778320 3214.434570,1902.697754 3200.994629,1895.150635 
	C3146.473877,1864.535278 3092.052734,1833.742432 3037.589355,1803.025146 
	C2941.406982,1748.778564 2845.219971,1694.540894 2749.039551,1640.291016 
	C2745.591309,1638.346069 2742.194580,1636.309448 2737.552979,1633.603882 
	C2740.563721,1631.623779 2742.782715,1629.984375 2745.162109,1628.625366 
	C2867.333008,1558.839844 2989.511230,1489.067505 3111.704346,1419.321167 
	C3141.168701,1402.503296 3170.600586,1385.625488 3200.215332,1369.075806 
	C3215.537842,1360.513062 3230.697510,1361.275269 3245.207520,1371.574585 
	C3254.696289,1378.309937 3258.619141,1387.697876 3259.410156,1399.494385 
	C3260.000000,1401.500000 3260.000000,1403.000000 3259.415527,1405.740967 
	C3258.796387,1421.770142 3250.180176,1430.870605 3238.290039,1437.670410 
	C3129.461670,1499.909668 3020.612305,1562.111694 2911.787598,1624.356812 
	C2907.548828,1626.781372 2903.495850,1629.531250 2898.698242,1632.542603 
	C2901.276855,1634.258057 2902.837891,1635.443726 2904.528809,1636.399536 
	C2938.686768,1655.707520 2972.865479,1674.978760 3007.028320,1694.277954 
	C3083.751221,1737.620361 3160.406982,1781.082397 3237.259277,1824.193481 
	C3247.526367,1829.953003 3254.842041,1837.750488 3260.000000,1848.000000 
	C3260.000000,1856.049072 3260.000000,1864.098145 3260.000000,1873.073608 
z"/>
<path fill="#FFFFFF" opacity="1.000000" stroke="none" 
	d="
M5.062374,1410.026489 
	C8.179747,1422.222046 14.996714,1431.185425 26.202324,1437.561646 
	C104.261528,1481.977539 182.148621,1526.695679 260.096344,1571.307495 
	C292.429382,1589.812622 324.783478,1608.281006 357.102783,1626.809937 
	C359.909943,1628.419067 362.528198,1630.357666 366.154785,1632.750854 
	C358.347656,1637.353882 351.603485,1641.482300 344.720490,1645.364746 
	C276.349976,1683.928955 207.945847,1722.433472 139.573944,1760.995239 
	C104.228783,1780.930054 69.127853,1801.310059 33.504845,1820.733765 
	C20.531635,1827.807617 9.563860,1836.049805 2.686651,1849.866699 
	C2.000000,1703.958252 2.000000,1557.916382 2.510467,1410.938721 
	C3.701413,1410.010742 4.381894,1410.018677 5.062374,1410.026489 
z"/>
<path fill="#FEFFFF" opacity="1.000000" stroke="none" 
	d="
M3260.000000,1847.062744 
	C3254.842041,1837.750488 3247.526367,1829.953003 3237.259277,1824.193481 
	C3160.406982,1781.082397 3083.751221,1737.620361 3007.028320,1694.277954 
	C2972.865479,1674.978760 2938.686768,1655.707520 2904.528809,1636.399536 
	C2902.837891,1635.443726 2901.276855,1634.258057 2898.698242,1632.542603 
	C2903.495850,1629.531250 2907.548828,1626.781372 2911.787598,1624.356812 
	C3020.612305,1562.111694 3129.461670,1499.909668 3238.290039,1437.670410 
	C3250.180176,1430.870605 3258.796387,1421.770142 3259.415527,1406.490967 
	C3260.000000,1552.708496 3260.000000,1699.416870 3260.000000,1847.062744 
z"/>
<path fill="#254fc3 " opacity="1.000000" stroke="none" 
	d="
M1738.921265,3260.000000 
	C1736.652100,3259.199219 1735.345581,3258.316406 1733.949707,3257.610840 
	C1718.683228,3249.892822 1710.233398,3238.057129 1710.248901,3220.402344 
	C1710.348389,3107.126221 1710.299561,2993.849854 1710.299561,2880.573730 
	C1710.299561,2724.319336 1710.346069,2568.064697 1710.157227,2411.810547 
	C1710.148193,2404.272461 1712.159912,2398.882080 1717.631470,2393.510010 
	C1738.541016,2372.981445 1758.908447,2351.900879 1779.505249,2331.052979 
	C1782.037231,2328.490234 1784.731689,2326.087891 1788.250000,2322.760986 
	C1788.903809,2325.585449 1789.473755,2327.277344 1789.649170,2329.008789 
	C1789.849365,2330.987793 1789.700317,2333.002197 1789.700317,2335.001221 
	C1789.700562,2628.853027 1789.684082,2922.704590 1789.760498,3216.556396 
	C1789.763550,3228.339844 1787.437378,3239.280518 1778.881714,3247.622070 
	C1774.245361,3252.142578 1768.088867,3255.104248 1762.309082,3259.384521 
	C1754.614136,3260.000000 1747.228394,3260.000000 1738.921265,3260.000000 
z"/>
<path fill="#254fc3 " opacity="1.000000" stroke="none" 
	d="
M1504.916138,3260.000000 
	C1495.697632,3255.304199 1486.651245,3251.752930 1481.528687,3242.705566 
	C1478.004517,3236.481201 1475.245117,3230.255371 1475.670410,3222.948242 
	C1475.786377,3220.955078 1475.687500,3218.949463 1475.687500,3216.949707 
	C1475.687500,2923.649414 1475.687500,2630.349365 1475.687500,2337.049072 
	C1475.687500,2333.098877 1475.687500,2329.148682 1475.687500,2323.720215 
	C1478.172607,2325.532471 1479.768311,2326.407715 1481.006714,2327.641602 
	C1503.907227,2350.461426 1526.712524,2373.376953 1549.690918,2396.117920 
	C1553.024658,2399.417236 1554.915527,2402.810791 1554.343994,2407.518066 
	C1554.144653,2409.160400 1554.312378,2410.847168 1554.312378,2412.513672 
	C1554.312500,2680.816650 1554.322021,2949.119873 1554.242554,3217.422852 
	C1554.240967,3222.677979 1553.905029,3228.131836 1552.497314,3233.148438 
	C1548.796997,3246.334473 1539.652222,3254.551270 1526.424927,3259.453125 
	C1519.277466,3260.000000 1512.554810,3260.000000 1504.916138,3260.000000 
z"/>
<path fill="#FEFFFF" opacity="1.000000" stroke="none" 
	d="
M4.989549,1409.261963 
	C4.381894,1410.018677 3.701413,1410.010742 2.510467,1410.001465 
	C2.000000,1405.916626 2.000000,1401.833374 2.000000,1396.875000 
	C2.371788,1396.009888 2.743576,1396.019897 3.672761,1396.055908 
	C4.459013,1400.220581 4.687868,1404.358887 4.989549,1409.261963 
z"/>
<path fill="#254fc3 " opacity="1.000000" stroke="none" 
	d="
M1319.700317,2336.000000 
	C1319.700317,2621.901123 1319.669067,2906.802490 1319.790161,3191.703613 
	C1319.796387,3206.489990 1314.894653,3218.311279 1302.694458,3226.801514 
	C1289.729858,3235.823975 1275.725464,3236.297852 1262.029419,3229.562988 
	C1248.901367,3223.107422 1241.971069,3211.552734 1240.353271,3196.990967 
	C1240.060547,3194.357422 1240.300049,3191.664062 1240.300049,3188.998291 
	C1240.299561,2826.790527 1240.299561,2464.583008 1240.299561,2102.375244 
	C1240.299561,2098.510498 1240.299561,2094.645508 1240.299561,2089.238525 
	C1242.984863,2091.122070 1244.369751,2091.831787 1245.427490,2092.873779 
	C1268.682495,2115.781250 1291.790161,2138.840088 1315.229858,2161.556396 
	C1319.415649,2165.613037 1319.745728,2169.969482 1319.739624,2175.057373 
	C1319.676270,2228.371582 1319.700439,2281.685791 1319.700317,2336.000000 
z"/>
<path fill="#254fc3 " opacity="1.000000" stroke="none" 
	d="
M2004.172363,3228.632812 
	C1981.307739,3240.425537 1958.584106,3230.425537 1949.596680,3212.611572 
	C1946.556519,3206.585693 1945.831299,3199.341797 1944.398682,3192.580322 
	C1943.858154,3190.029053 1944.307373,3187.267578 1944.307373,3184.602051 
	C1944.307251,2849.730469 1944.352783,2514.859131 1944.077637,2179.987793 
	C1944.069702,2170.430176 1946.945068,2163.976318 1953.640747,2157.515869 
	C1974.498779,2137.390625 1994.763916,2116.651123 2015.273926,2096.164551 
	C2017.594971,2093.846191 2020.011719,2091.623291 2023.409424,2088.376465 
	C2023.806274,2091.575684 2024.141235,2093.640137 2024.295288,2095.718262 
	C2024.417969,2097.375244 2024.320068,2099.048584 2024.320068,2100.714600 
	C2024.320190,2462.908936 2024.325928,2825.103271 2024.266846,3187.297607 
	C2024.265991,3192.918457 2024.146851,3198.696289 2022.893311,3204.126465 
	C2020.464111,3214.650635 2013.943481,3222.525391 2004.172363,3228.632812 
z"/>
<path fill="#254fc3 " opacity="1.000000" stroke="none" 
	d="
M630.552246,2394.541504 
	C532.041992,2451.599121 434.186005,2508.320801 336.244904,2564.895508 
	C330.855072,2568.008789 324.953796,2570.642334 318.954468,2572.224609 
	C293.859528,2578.843262 270.651245,2556.812012 271.332581,2534.768066 
	C271.866364,2517.499268 278.843658,2505.830566 293.341370,2497.477051 
	C348.683624,2465.590576 403.956177,2433.582764 459.229706,2401.576904 
	C554.809021,2346.231934 650.347351,2290.816406 745.945068,2235.503418 
	C821.960205,2191.520996 898.069702,2147.701660 974.077759,2103.707031 
	C1029.933716,2071.376709 1085.688232,2038.871460 1141.507324,2006.477417 
	C1144.938232,2004.486206 1148.539062,2002.787964 1151.183105,2001.410767 
	C1170.548340,2020.925781 1189.457031,2039.980591 1208.797607,2059.470703 
	C1208.289917,2059.835938 1206.635010,2061.254395 1204.780640,2062.327393 
	C1076.359985,2136.633789 947.920105,2210.906494 819.489929,2285.196289 
	C756.714783,2321.508301 693.955200,2357.847412 630.552246,2394.541504 
z"/>
<path fill="#254fc3 " opacity="1.000000" stroke="none" 
	d="
M2911.176025,2554.790039 
	C2795.345703,2487.758301 2680.136963,2421.118408 2564.935791,2354.465332 
	C2465.284912,2296.809326 2365.650879,2239.125000 2265.994629,2181.478516 
	C2199.175049,2142.826660 2132.326904,2104.224365 2065.504883,2065.577393 
	C2062.071045,2063.591309 2058.761719,2061.390137 2056.509521,2059.984863 
	C2075.551758,2040.928833 2094.520020,2021.946655 2114.561768,2001.890381 
	C2120.454346,2005.189697 2128.545898,2009.594849 2136.520020,2014.203491 
	C2248.583008,2078.971436 2360.643311,2143.743896 2472.676758,2208.562744 
	C2563.686279,2261.218018 2654.657959,2313.939209 2745.648682,2366.627686 
	C2821.377930,2410.479248 2897.122314,2454.304932 2972.833984,2498.186523 
	C2995.343994,2511.233154 3000.585693,2538.413818 2984.750488,2559.041992 
	C2975.739258,2570.781006 2954.201660,2579.594971 2934.243652,2568.214600 
	C2926.728027,2563.929443 2919.279785,2559.525879 2911.176025,2554.790039 
z"/>
<path fill="#254fc3 " opacity="1.000000" stroke="none" 
	d="
M2303.486816,517.497192 
	C2401.398926,460.753723 2498.684326,404.389374 2595.889404,347.887085 
	C2606.933350,341.467529 2618.290283,337.361450 2631.028809,340.860138 
	C2647.140869,345.285278 2659.224121,355.852325 2661.226074,376.388214 
	C2662.796387,392.494751 2655.209717,405.408691 2641.000977,413.698792 
	C2605.375000,434.484894 2569.653320,455.106781 2533.988281,475.826050 
	C2448.561523,525.454407 2363.144531,575.100708 2277.724121,624.740173 
	C2247.813721,642.121643 2217.910645,659.515564 2187.979980,676.862488 
	C2185.789307,678.132202 2183.403320,679.065491 2179.678711,680.834106 
	C2179.678711,676.341797 2179.678711,673.151245 2179.678711,669.960693 
	C2179.678711,569.993469 2179.600586,470.026123 2179.704590,370.059021 
	C2179.780273,297.428680 2180.090088,224.798615 2180.311035,152.168457 
	C2180.359619,136.246002 2186.550781,123.767326 2201.057373,116.246300 
	C2215.817383,108.593933 2230.001953,110.403893 2243.428467,119.600479 
	C2255.247803,127.696091 2258.616699,140.018188 2259.655029,153.354507 
	C2259.861328,156.004456 2259.693359,158.683792 2259.693359,161.349579 
	C2259.694092,283.976044 2259.694092,406.602539 2259.694092,529.229004 
	C2259.694092,533.174927 2259.693848,537.120911 2259.693848,542.847229 
	C2274.919922,534.019897 2288.877930,525.927734 2303.486816,517.497192 
z"/>
<path fill="#254fc3 " opacity="1.000000" stroke="none" 
	d="
M2529.565430,2876.476562 
	C2480.317383,2847.877686 2431.710938,2819.635742 2383.088867,2791.421143 
	C2344.535889,2769.049316 2305.966553,2746.704834 2267.387695,2724.377686 
	C2265.474609,2723.270508 2263.398438,2722.444824 2259.693848,2720.673096 
	C2259.693848,2725.823486 2259.694092,2729.641357 2259.694092,2733.459229 
	C2259.693848,2856.751221 2259.750977,2980.042969 2259.555176,3103.334717 
	C2259.543213,3110.845703 2258.439209,3118.629150 2256.265381,3125.808105 
	C2250.993896,3143.218018 2233.642334,3152.387451 2216.547607,3150.922852 
	C2193.014648,3148.906982 2181.988281,3132.173584 2180.343994,3114.984619 
	C2180.154541,3113.003174 2180.306885,3110.988281 2180.306885,3108.989014 
	C2180.305908,3087.329590 2180.331299,3065.670410 2180.302246,3044.010986 
	C2180.100586,2894.407227 2179.887451,2744.803467 2179.678955,2595.199707 
	C2179.673584,2591.215088 2179.678711,2587.230469 2179.678711,2581.541992 
	C2189.539795,2587.047363 2198.451660,2591.850830 2207.201172,2596.934570 
	C2284.572510,2641.888184 2361.918945,2686.885010 2439.264648,2731.883057 
	C2506.545166,2771.024658 2573.784424,2810.236816 2641.113281,2849.294678 
	C2655.214355,2857.474609 2662.117188,2870.047363 2661.221436,2885.592773 
	C2660.274902,2902.014160 2651.477295,2914.341064 2635.525146,2920.395264 
	C2622.553223,2925.318604 2610.231445,2923.287598 2598.421143,2916.357178 
	C2580.346191,2905.750977 2562.187988,2895.286621 2544.057129,2884.775635 
	C2539.453125,2882.106445 2534.820068,2879.487549 2529.565430,2876.476562 
z"/>
<path fill="#254fc3 " opacity="1.000000" stroke="none" 
	d="
M1005.681702,2748.031250 
	C1005.681580,2738.711670 1005.681580,2730.384521 1005.681580,2720.339111 
	C1002.105896,2722.134766 999.302551,2723.367676 996.667358,2724.891357 
	C946.256104,2754.036621 895.850891,2783.192139 845.473022,2812.395020 
	C791.063293,2843.935303 736.682983,2875.526367 682.289124,2907.093750 
	C675.959106,2910.767334 669.771973,2914.722656 663.260620,2918.041016 
	C649.217346,2925.197754 635.156616,2925.162109 621.698242,2916.558350 
	C608.412231,2908.064941 602.644592,2895.437744 603.823303,2879.970947 
	C604.885376,2866.035645 612.190247,2855.859131 624.347595,2848.865234 
	C657.227722,2829.951172 690.023865,2810.889893 722.811523,2791.815430 
	C803.347534,2744.962891 883.850769,2698.053955 964.385864,2651.199707 
	C1002.926392,2628.777344 1041.506836,2606.423584 1080.083862,2584.064209 
	C1081.421143,2583.289062 1082.920166,2582.792725 1085.229492,2581.776367 
	C1085.440796,2583.896729 1085.641846,2585.090576 1085.662964,2586.287842 
	C1085.715698,2589.287109 1085.697021,2592.287354 1085.688965,2595.287354 
	C1085.233276,2766.901367 1084.779175,2938.515381 1084.314087,3110.129395 
	C1084.249878,3133.805176 1070.551392,3149.961670 1047.141113,3151.114014 
	C1028.257446,3152.043457 1010.286621,3141.226807 1006.282532,3117.975098 
	C1005.554565,3113.747803 1005.704956,3109.343018 1005.703979,3105.020264 
	C1005.676331,2986.354736 1005.681824,2867.688965 1005.681702,2748.031250 
z"/>
<path fill="#254fc3 " opacity="1.000000" stroke="none" 
	d="
M1005.946777,146.858124 
	C1007.543518,119.561760 1042.868652,99.354668 1070.138672,120.190659 
	C1078.838257,126.837624 1083.253418,135.916199 1084.200684,146.700439 
	C1084.491333,150.009766 1084.315186,153.362061 1084.315308,156.694687 
	C1084.319092,269.357086 1084.170288,382.019745 1084.379883,494.681732 
	C1084.487671,552.628357 1085.234497,610.573792 1085.686768,668.519775 
	C1085.714844,672.127014 1085.690430,675.734680 1085.690430,680.739624 
	C1082.322632,679.289734 1079.924438,678.535095 1077.802979,677.303589 
	C1007.588928,636.542542 937.406250,595.727295 867.208496,554.938110 
	C794.995850,512.978271 722.772705,471.036469 650.552612,429.089325 
	C641.920410,424.075500 633.407349,418.838196 624.615784,414.120544 
	C603.349243,402.708679 598.988342,377.386597 608.566895,360.027374 
	C617.851379,343.201233 642.431274,333.159210 662.260315,344.362915 
	C685.724854,357.620697 708.988586,371.234497 732.309814,384.744965 
	C793.635742,420.272186 854.949280,455.820679 916.260132,491.373901 
	C942.165955,506.396271 968.045288,521.464600 993.956909,536.476929 
	C997.315308,538.422729 1000.795776,540.157898 1005.681885,542.773254 
	C1005.681885,537.774353 1005.681946,534.252686 1005.681946,530.731018 
	C1005.681946,407.069031 1005.680664,283.407074 1005.687561,159.745102 
	C1005.687744,155.746414 1005.770813,151.747726 1005.946777,146.858124 
z"/>
<path fill="#254fc3 " opacity="1.000000" stroke="none" 
	d="
M2024.320435,746.000000 
	C2024.320557,834.206543 2024.320557,921.413086 2024.320557,1007.973206 
	C1997.197388,1012.922241 1971.200439,1017.665771 1944.307251,1022.572876 
	C1944.307251,1019.474304 1944.307373,1016.221252 1944.307373,1012.968201 
	C1944.307373,702.093201 1944.288330,391.218231 1944.430786,80.343307 
	C1944.433838,73.479156 1945.324463,66.304466 1947.445068,59.811535 
	C1953.381348,41.635933 1970.142456,30.676298 1987.940186,32.326939 
	C2005.825073,33.985668 2020.897583,48.599422 2023.667480,67.317154 
	C2024.345459,71.898926 2024.295288,76.613373 2024.295898,81.266846 
	C2024.323608,302.511230 2024.320312,523.755615 2024.320435,746.000000 
z"/>
<path fill="#254fc3 " opacity="1.000000" stroke="none" 
	d="
M1319.700317,436.000061 
	C1319.700195,631.920227 1319.700195,826.840393 1319.700195,1022.255920 
	C1293.171997,1017.504211 1267.478394,1012.901978 1240.299561,1008.033752 
	C1240.299561,1005.091797 1240.299561,1001.219238 1240.299561,997.346680 
	C1240.299561,903.032410 1240.299561,808.718140 1240.299561,714.403870 
	C1240.299561,502.113434 1240.323730,289.822998 1240.232910,77.532585 
	C1240.228149,66.130745 1242.659058,55.658829 1249.889038,46.812023 
	C1260.453613,33.884811 1276.926392,29.155224 1292.115845,34.144352 
	C1307.481079,39.191174 1318.974976,54.565292 1319.681885,71.074554 
	C1319.781616,73.403214 1319.700317,75.739693 1319.700317,78.072548 
	C1319.700439,197.048370 1319.700439,316.024200 1319.700317,436.000061 
z"/>
<path fill="#254fc3 " opacity="1.000000" stroke="none" 
	d="
M843.182922,1907.205322 
	C888.665833,1880.779663 933.525574,1854.740234 978.112488,1828.859253 
	C997.474548,1848.545654 1016.342041,1867.729370 1035.754761,1887.467407 
	C1028.575684,1891.810425 1020.838013,1896.668579 1012.936646,1901.244141 
	C926.004761,1951.585571 839.008606,2001.816040 752.106384,2052.208496 
	C643.047180,2115.449219 534.080688,2178.849365 425.033539,2242.110596 
	C354.827209,2282.839600 284.443176,2323.263916 214.410187,2364.288086 
	C203.443710,2370.711914 193.150375,2374.530762 180.570190,2370.387695 
	C164.312073,2365.033203 154.772690,2353.697510 152.594910,2337.313232 
	C150.258224,2319.733643 156.596481,2305.612793 172.778061,2296.249756 
	C289.669067,2228.612305 406.462524,2160.806152 523.264099,2093.014404 
	C629.710938,2031.232422 736.129028,1969.401123 843.182922,1907.205322 
z"/>
<path fill="#254fc3 " opacity="1.000000" stroke="none" 
	d="
M2600.781738,2011.199951 
	C2690.334961,2063.151367 2779.264160,2114.715576 2868.184082,2166.294922 
	C2943.003174,2209.694824 3017.749268,2253.220459 3092.671143,2296.442139 
	C3110.234131,2306.573975 3115.412354,2325.748779 3111.114746,2342.962891 
	C3106.587646,2361.096924 3088.523193,2373.560059 3069.597656,2372.153564 
	C3065.457520,2371.845703 3061.067871,2370.353027 3057.448242,2368.268555 
	C3007.000488,2339.214111 2956.662598,2309.968750 2906.305908,2280.756104 
	C2850.768066,2248.538086 2795.237549,2216.306885 2739.705811,2184.078857 
	C2653.674561,2134.150146 2567.652344,2084.206055 2481.612061,2034.293701 
	C2411.972900,1993.895630 2342.316650,1953.526245 2272.656738,1913.163696 
	C2259.128662,1905.325195 2245.539307,1897.591919 2232.005615,1889.763428 
	C2230.631836,1888.968750 2229.445068,1887.850708 2227.095459,1886.064941 
	C2246.769531,1866.908813 2266.003418,1848.181152 2286.075684,1828.637451 
	C2390.835938,1889.404053 2495.494629,1950.111816 2600.781738,2011.199951 
z"/>
<path fill="#254fc3 " opacity="1.000000" stroke="none" 
	d="
M2608.308594,1835.687012 
	C2549.259277,1801.426270 2490.810791,1767.585693 2432.376221,1733.721680 
	C2421.515381,1727.427612 2410.709473,1721.039307 2399.761963,1714.626465 
	C2415.036133,1692.388428 2429.810547,1670.878174 2444.999512,1648.764282 
	C2461.311768,1658.210693 2477.668701,1667.673706 2494.016602,1677.151733 
	C2567.411621,1719.702759 2640.799561,1762.265869 2714.198486,1804.810303 
	C2809.187256,1859.869019 2904.183594,1914.914917 2999.177734,1969.964600 
	C3057.323730,2003.660767 3115.503906,2037.298828 3173.567383,2071.136719 
	C3179.248047,2074.447266 3184.908691,2078.329102 3189.377686,2083.076416 
	C3200.785400,2095.194580 3202.622559,2109.597168 3196.265381,2124.698730 
	C3189.829346,2139.987305 3177.756104,2147.453369 3161.217529,2148.405762 
	C3151.788574,2148.948730 3143.473145,2146.151123 3135.581787,2141.575684 
	C3068.519043,2102.693848 3001.489014,2063.755615 2934.438232,2024.852783 
	C2874.294189,1989.957153 2814.137207,1955.082764 2753.983643,1920.203247 
	C2705.629150,1892.165283 2657.270508,1864.133423 2608.308594,1835.687012 
z"/>
<path fill="#254fc3 " opacity="1.000000" stroke="none" 
	d="
M637.100586,1847.160034 
	C595.013611,1871.525879 553.513916,1895.445068 512.062317,1919.447266 
	C456.504059,1951.618042 400.978149,1983.844727 345.447327,2016.062744 
	C274.378143,2057.295898 203.247589,2098.424316 132.307816,2139.879150 
	C116.491562,2149.121826 100.815399,2152.189941 84.228104,2142.835449 
	C61.166531,2129.829102 58.570595,2093.552734 80.244568,2078.500488 
	C93.867516,2069.039307 108.566750,2061.101318 122.943855,2052.757080 
	C231.405365,1989.806274 339.898102,1926.909302 448.398804,1864.026001 
	C522.077209,1821.324463 595.803711,1778.705688 669.471619,1735.985962 
	C715.801208,1709.119507 762.058044,1682.127808 808.361389,1655.216064 
	C812.069336,1653.061035 815.886047,1651.092896 819.854370,1648.927490 
	C834.958740,1670.788940 849.760315,1692.212158 865.262573,1714.649536 
	C789.396973,1758.691528 713.553040,1802.720825 637.100586,1847.160034 
z"/>
<path fill="#254fc3 " opacity="1.000000" stroke="none" 
	d="
M3199.401367,1170.771240 
	C3194.735596,1178.785767 3188.769775,1184.258179 3181.352783,1188.541504 
	C3127.208008,1219.809570 3073.162842,1251.250122 3019.075928,1282.618652 
	C2942.837646,1326.834106 2866.590088,1371.033936 2790.347168,1415.240845 
	C2730.214844,1450.106201 2670.083984,1484.974121 2609.949951,1519.836548 
	C2597.310303,1527.164429 2584.660400,1534.474243 2571.478760,1542.103149 
	C2545.700928,1527.126343 2519.974365,1512.179199 2492.542236,1496.241211 
	C2498.036133,1492.765259 2501.776123,1490.220581 2505.678955,1487.956909 
	C2559.763184,1456.586792 2613.876709,1425.267456 2667.968750,1393.911621 
	C2754.575684,1343.707642 2841.175537,1293.492065 2927.771240,1243.269287 
	C2997.392822,1202.890991 3067.025879,1162.531738 3136.594482,1122.062500 
	C3146.000977,1116.590698 3155.584473,1112.902344 3166.788574,1113.581177 
	C3181.977539,1114.501343 3195.218994,1124.942139 3200.347168,1139.167603 
	C3204.199463,1149.852905 3203.985840,1159.858521 3199.401367,1170.771240 
z"/>
<path fill="#254fc3 " opacity="1.000000" stroke="none" 
	d="
M253.331909,1194.701660 
	C308.914795,1226.928955 363.902740,1258.724609 418.859406,1290.574341 
	C473.242004,1322.091064 527.587952,1353.671265 581.959534,1385.207153 
	C642.945801,1420.579468 703.946533,1455.926758 764.917786,1491.324951 
	C766.827393,1492.433594 768.480286,1493.984375 771.473328,1496.254761 
	C745.689026,1512.594849 719.646362,1526.325562 693.744202,1542.065552 
	C685.904907,1537.661133 677.802246,1533.228760 669.812317,1528.601562 
	C573.692627,1472.936157 477.569305,1417.276978 381.487823,1361.545654 
	C281.951721,1303.810547 182.471497,1245.979004 82.937668,1188.239868 
	C67.995834,1179.572144 59.868244,1166.949951 62.015259,1149.587891 
	C64.078545,1132.902710 72.570740,1120.178833 89.552948,1115.172119 
	C100.818153,1111.850708 111.978027,1112.878296 122.343819,1118.813965 
	C137.639359,1127.572876 152.862457,1136.458130 168.115265,1145.291626 
	C196.318375,1161.625000 224.520630,1177.959717 253.331909,1194.701660 
z"/>
<path fill="#254fc3 " opacity="1.000000" stroke="none" 
	d="
M2471.562988,1055.553589 
	C2433.258545,1077.776123 2395.588379,1099.633301 2359.017090,1120.853027 
	C2335.553955,1103.132324 2313.102539,1086.175659 2290.096191,1068.799805 
	C2294.036621,1066.360840 2298.099365,1063.702271 2302.293945,1061.270996 
	C2367.640381,1023.398193 2433.019287,985.582458 2498.358887,947.697876 
	C2583.848633,898.129883 2669.291992,848.481506 2754.790527,798.928589 
	C2810.635986,766.561829 2866.542236,734.299133 2922.428955,702.003540 
	C2927.324463,699.174561 2932.105469,696.064148 2937.237305,693.742554 
	C2954.524902,685.922119 2974.915771,691.039917 2985.673828,705.597229 
	C2997.229736,721.234070 2996.738037,741.575867 2983.858154,756.083679 
	C2980.419678,759.956909 2975.743896,762.948364 2971.197266,765.589355 
	C2862.443848,828.760437 2753.622070,891.813843 2644.831543,954.921021 
	C2587.268555,988.312134 2529.740723,1021.763977 2471.562988,1055.553589 
z"/>
<path fill="#254fc3 " opacity="1.000000" stroke="none" 
	d="
M562.420776,921.543518 
	C508.811554,890.497375 455.829834,859.830017 402.864990,829.133545 
	C367.747345,808.780579 332.583710,788.505005 297.612244,767.903503 
	C291.110413,764.073303 284.590546,759.625183 279.530151,754.126709 
	C267.595764,741.159119 269.496033,716.083313 280.200073,704.260986 
	C293.268005,689.827820 313.152771,685.522705 330.080109,694.898621 
	C350.158630,706.019897 369.886932,717.774231 389.750397,729.282837 
	C483.885559,783.823120 578.019287,838.365845 672.145508,892.921570 
	C770.014282,949.646484 867.875549,1006.384155 965.728271,1063.136719 
	C968.782104,1064.907837 971.704590,1066.905518 975.631226,1069.395630 
	C965.100159,1076.690063 955.385376,1082.967041 946.175964,1089.913940 
	C935.036743,1098.316528 924.212341,1107.150146 913.471436,1116.062134 
	C907.141052,1121.314697 907.140015,1121.644775 900.566528,1117.831177 
	C825.743835,1074.422729 750.935181,1030.989990 676.124512,987.560913 
	C638.433044,965.680176 600.744995,943.793762 562.420776,921.543518 
z"/>
<path fill="#254fc3 " opacity="1.000000" stroke="none" 
	d="
M828.712952,2552.703613 
	C732.840759,2608.298828 637.572937,2663.476807 542.322815,2718.685059 
	C523.042236,2729.860840 503.861664,2741.209229 484.574707,2752.373779 
	C466.887115,2762.612305 447.002747,2759.932373 433.346680,2745.981689 
	C416.404022,2728.673828 419.963623,2698.296387 439.962189,2686.035645 
	C456.122559,2676.128418 472.655396,2666.827148 489.052032,2657.306885 
	C582.249512,2603.196777 675.435486,2549.066406 768.665894,2495.013184 
	C834.847839,2456.642334 901.106750,2418.404053 967.306519,2380.063965 
	C1002.996521,2359.393799 1038.630981,2338.627441 1074.301270,2317.923340 
	C1077.429810,2316.107422 1080.639282,2314.430664 1083.869629,2312.657471 
	C1086.244873,2320.059570 1087.043457,2374.954102 1085.245972,2403.900391 
	C1077.887939,2408.185059 1070.160889,2412.702637 1062.417358,2417.190918 
	C984.721130,2462.229248 907.021912,2507.262451 828.712952,2552.703613 
z"/>
<path fill="#254fc3 " opacity="1.000000" stroke="none" 
	d="
M2681.459473,2602.520996 
	C2728.406250,2629.762939 2774.539062,2656.949951 2821.093262,2683.395996 
	C2848.600098,2699.021240 2849.895264,2737.686035 2821.657959,2753.548584 
	C2808.923340,2760.702148 2795.400635,2760.524414 2782.524170,2753.441406 
	C2768.539062,2745.749023 2754.840576,2737.535156 2741.026611,2729.532227 
	C2622.468018,2660.845947 2503.897705,2592.180420 2385.359375,2523.459229 
	C2319.183105,2485.094482 2253.101562,2446.565674 2186.840088,2408.348633 
	C2181.498779,2405.268311 2179.476074,2401.915039 2179.551025,2395.817383 
	C2179.858398,2370.834717 2179.665039,2345.845947 2179.701904,2320.859619 
	C2179.705566,2318.348145 2180.021240,2315.837158 2180.268066,2312.208008 
	C2191.548096,2318.598389 2201.932129,2324.362549 2212.204590,2330.320068 
	C2282.113281,2370.862793 2351.989258,2411.461670 2421.893066,2452.012451 
	C2508.194336,2502.074951 2594.512207,2552.108643 2681.459473,2602.520996 
z"/>
<path fill="#254fc3 " opacity="1.000000" stroke="none" 
	d="
M423.927490,557.291931 
	C418.565643,537.489136 424.082336,521.340027 439.923187,511.325439 
	C453.435089,502.783203 467.951111,502.686218 481.575989,510.422424 
	C522.075012,533.417603 562.235413,557.009033 602.530334,580.363708 
	C659.807434,613.561218 717.097229,646.737061 774.362122,679.955566 
	C861.268738,730.368896 948.156860,780.814026 1035.057373,831.237854 
	C1050.020874,839.920471 1064.951172,848.663147 1080.023560,857.153076 
	C1083.494751,859.108276 1085.780029,861.014099 1085.758057,865.446228 
	C1085.617676,893.751648 1085.686523,922.058167 1085.686523,951.521606 
	C1082.887695,950.379089 1080.807739,949.799011 1078.997803,948.752075 
	C1025.434082,917.769348 971.885254,886.760864 918.359070,855.713379 
	C853.034424,817.822205 787.707642,779.934692 722.427307,741.967224 
	C651.969910,700.988831 581.566467,659.917603 511.136475,618.892029 
	C488.713562,605.830688 466.283417,592.781677 443.851837,579.735291 
	C434.999756,574.586853 427.664642,568.067078 423.927490,557.291931 
z"/>
<path fill="#254fc3 " opacity="1.000000" stroke="none" 
	d="
M2562.422852,638.455444 
	C2611.972900,609.674988 2660.878906,581.248657 2709.803467,552.853516 
	C2734.552490,538.489441 2759.173340,523.892761 2784.149414,509.933624 
	C2806.952637,497.188995 2836.125000,510.080872 2842.073242,534.867920 
	C2846.345459,552.670715 2837.987549,569.893555 2823.365967,578.301941 
	C2808.656250,586.761047 2794.105225,595.495667 2779.438965,604.030823 
	C2694.020508,653.740417 2608.605225,703.454956 2523.156250,753.111938 
	C2458.423096,790.730408 2393.633789,828.252380 2328.884277,865.842529 
	C2282.553223,892.739807 2236.248535,919.682861 2189.922607,946.589233 
	C2187.113770,948.220581 2184.221436,949.708252 2180.366211,951.808533 
	C2180.084961,948.374817 2179.710449,945.900513 2179.706055,943.425598 
	C2179.661865,918.759094 2179.932373,894.088196 2179.516357,869.428589 
	C2179.399658,862.518433 2181.670654,858.725403 2187.658936,855.297974 
	C2235.598145,827.860046 2283.344238,800.085388 2331.135254,772.389221 
	C2406.565430,728.675415 2481.984131,684.941772 2557.410889,641.222046 
	C2558.849854,640.388000 2560.327393,639.620911 2562.422852,638.455444 
z"/>
<path fill="#254fc3 " opacity="1.000000" stroke="none" 
	d="
M3094.387695,966.510559 
	C2890.418945,1084.925049 2687.069580,1202.973022 2483.248535,1321.294800 
	C2473.362305,1296.109985 2463.733154,1271.580200 2453.735352,1246.111206 
	C2463.227051,1240.483154 2473.131836,1234.495117 2483.143311,1228.691406 
	C2587.599854,1168.137329 2692.058105,1107.585938 2796.547852,1047.088867 
	C2875.705566,1001.258484 2954.911377,955.510681 3034.091064,909.717957 
	C3040.136963,906.221497 3046.215332,902.773621 3052.158936,899.109314 
	C3072.142090,886.790039 3096.933594,894.047302 3107.367188,911.154968 
	C3119.649414,931.294128 3113.572510,954.659241 3094.387695,966.510559 
z"/>
<path fill="#254fc3 " opacity="1.000000" stroke="none" 
	d="
M728.174805,1197.843018 
	C756.416931,1214.148438 783.991211,1230.154907 811.178528,1245.936768 
	C801.317017,1271.088379 791.771606,1295.433838 781.854065,1320.728394 
	C779.034546,1319.313843 775.484375,1317.760376 772.154053,1315.828003 
	C721.231628,1286.279175 670.353455,1256.654053 619.433594,1227.100830 
	C550.102478,1186.861816 480.730286,1146.693481 411.402039,1106.449341 
	C336.320557,1062.865601 261.268341,1019.231506 186.207184,975.612793 
	C180.457077,972.271301 174.487595,969.235596 169.049408,965.442261 
	C152.037003,953.575195 148.667755,938.664185 152.868454,921.771912 
	C157.003845,905.142334 169.249054,894.417358 190.359085,892.754639 
	C198.536896,892.110535 206.508255,895.375793 213.874039,899.731750 
	C233.628098,911.413879 253.627289,922.680664 273.486420,934.186096 
	C337.666382,971.368958 401.827179,1008.584961 465.995270,1045.788330 
	C550.020020,1094.504272 634.045410,1143.218994 718.066956,1191.940430 
	C721.232361,1193.776001 724.361023,1195.674927 728.174805,1197.843018 
z"/>
</svg>